G04 EAGLE Gerber RS-274X export*
G75*
%MOMM*%
%FSLAX34Y34*%
%LPD*%
%INBottom Copper*%
%IPPOS*%
%AMOC8*
5,1,8,0,0,1.08239X$1,22.5*%
G01*
%ADD10R,0.660400X2.032000*%
%ADD11R,1.815300X1.164600*%
%ADD12C,1.800000*%
%ADD13C,1.508000*%
%ADD14C,0.756400*%
%ADD15C,0.508000*%


D10*
X920750Y159766D03*
X920750Y221234D03*
X908050Y159766D03*
X895350Y159766D03*
X908050Y221234D03*
X895350Y221234D03*
X882650Y159766D03*
X882650Y221234D03*
X869950Y159766D03*
X869950Y221234D03*
X857250Y159766D03*
X844550Y159766D03*
X857250Y221234D03*
X844550Y221234D03*
X831850Y159766D03*
X831850Y221234D03*
D11*
X876300Y594846D03*
X876300Y624354D03*
X844550Y594846D03*
X844550Y624354D03*
X812800Y594846D03*
X812800Y624354D03*
X781050Y594846D03*
X781050Y624354D03*
X628650Y594846D03*
X628650Y624354D03*
X596900Y594846D03*
X596900Y624354D03*
X565150Y594846D03*
X565150Y624354D03*
X533400Y594846D03*
X533400Y624354D03*
X374650Y594846D03*
X374650Y624354D03*
X342900Y594846D03*
X342900Y624354D03*
X311150Y594846D03*
X311150Y624354D03*
D12*
X977900Y762000D03*
X901700Y762000D03*
X927100Y762000D03*
X952500Y762000D03*
X857250Y762000D03*
X781050Y762000D03*
X806450Y762000D03*
X831850Y762000D03*
X736600Y762000D03*
X660400Y762000D03*
X685800Y762000D03*
X711200Y762000D03*
X615950Y762000D03*
X539750Y762000D03*
X565150Y762000D03*
X590550Y762000D03*
X457200Y762000D03*
X381000Y762000D03*
X406400Y762000D03*
X431800Y762000D03*
X336550Y762000D03*
X260350Y762000D03*
X285750Y762000D03*
X311150Y762000D03*
X952500Y355600D03*
X952500Y279400D03*
X952500Y304800D03*
X952500Y330200D03*
X939800Y44450D03*
X863600Y44450D03*
X889000Y44450D03*
X914400Y44450D03*
X787400Y44450D03*
X711200Y44450D03*
X736600Y44450D03*
X762000Y44450D03*
X603250Y44450D03*
X527050Y44450D03*
X552450Y44450D03*
X577850Y44450D03*
X463550Y44450D03*
X387350Y44450D03*
X412750Y44450D03*
X438150Y44450D03*
X279400Y44450D03*
X203200Y44450D03*
X228600Y44450D03*
X254000Y44450D03*
D11*
X279400Y594846D03*
X279400Y624354D03*
D13*
X565150Y273050D03*
X539750Y273050D03*
X514350Y273050D03*
X488950Y273050D03*
X463550Y273050D03*
X438150Y273050D03*
X412750Y273050D03*
X565150Y501650D03*
X539750Y501650D03*
X514350Y501650D03*
X488950Y501650D03*
X463550Y501650D03*
X438150Y501650D03*
X412750Y501650D03*
X590550Y273050D03*
X590550Y501650D03*
D10*
X984250Y661416D03*
X984250Y722884D03*
X971550Y661416D03*
X958850Y661416D03*
X971550Y722884D03*
X958850Y722884D03*
X946150Y661416D03*
X946150Y722884D03*
X933450Y661416D03*
X933450Y722884D03*
X920750Y661416D03*
X908050Y661416D03*
X920750Y722884D03*
X908050Y722884D03*
X895350Y661416D03*
X895350Y722884D03*
X863600Y661416D03*
X863600Y722884D03*
X850900Y661416D03*
X838200Y661416D03*
X850900Y722884D03*
X838200Y722884D03*
X825500Y661416D03*
X825500Y722884D03*
X812800Y661416D03*
X812800Y722884D03*
X800100Y661416D03*
X787400Y661416D03*
X800100Y722884D03*
X787400Y722884D03*
X774700Y661416D03*
X774700Y722884D03*
X736600Y661416D03*
X736600Y722884D03*
X723900Y661416D03*
X711200Y661416D03*
X723900Y722884D03*
X711200Y722884D03*
X698500Y661416D03*
X698500Y722884D03*
X685800Y661416D03*
X685800Y722884D03*
X673100Y661416D03*
X660400Y661416D03*
X673100Y722884D03*
X660400Y722884D03*
X647700Y661416D03*
X647700Y722884D03*
X615950Y661416D03*
X615950Y722884D03*
X603250Y661416D03*
X590550Y661416D03*
X603250Y722884D03*
X590550Y722884D03*
X577850Y661416D03*
X577850Y722884D03*
X565150Y661416D03*
X565150Y722884D03*
X552450Y661416D03*
X539750Y661416D03*
X552450Y722884D03*
X539750Y722884D03*
X527050Y661416D03*
X527050Y722884D03*
X482600Y661416D03*
X482600Y722884D03*
X469900Y661416D03*
X457200Y661416D03*
X469900Y722884D03*
X457200Y722884D03*
X444500Y661416D03*
X444500Y722884D03*
X431800Y661416D03*
X431800Y722884D03*
X419100Y661416D03*
X406400Y661416D03*
X419100Y722884D03*
X406400Y722884D03*
X393700Y661416D03*
X393700Y722884D03*
X361950Y661416D03*
X361950Y722884D03*
X349250Y661416D03*
X336550Y661416D03*
X349250Y722884D03*
X336550Y722884D03*
X323850Y661416D03*
X323850Y722884D03*
X311150Y661416D03*
X311150Y722884D03*
X298450Y661416D03*
X285750Y661416D03*
X298450Y722884D03*
X285750Y722884D03*
X273050Y661416D03*
X273050Y722884D03*
X228600Y661416D03*
X228600Y722884D03*
X215900Y661416D03*
X203200Y661416D03*
X215900Y722884D03*
X203200Y722884D03*
X190500Y661416D03*
X190500Y722884D03*
X177800Y661416D03*
X177800Y722884D03*
X165100Y661416D03*
X152400Y661416D03*
X165100Y722884D03*
X152400Y722884D03*
X139700Y661416D03*
X139700Y722884D03*
X107950Y661416D03*
X107950Y722884D03*
X95250Y661416D03*
X82550Y661416D03*
X95250Y722884D03*
X82550Y722884D03*
X69850Y661416D03*
X69850Y722884D03*
X57150Y661416D03*
X57150Y722884D03*
X44450Y661416D03*
X31750Y661416D03*
X44450Y722884D03*
X31750Y722884D03*
X19050Y661416D03*
X19050Y722884D03*
D11*
X120650Y594846D03*
X120650Y624354D03*
X88900Y594846D03*
X88900Y624354D03*
X57150Y594846D03*
X57150Y624354D03*
X25400Y594846D03*
X25400Y624354D03*
D12*
X215900Y762000D03*
X139700Y762000D03*
X165100Y762000D03*
X190500Y762000D03*
X96520Y762000D03*
X20320Y762000D03*
X45720Y762000D03*
X71120Y762000D03*
X127000Y44450D03*
X50800Y44450D03*
X76200Y44450D03*
X101600Y44450D03*
X50800Y279400D03*
X50800Y355600D03*
X50800Y330200D03*
X50800Y304800D03*
D10*
X82550Y227584D03*
X82550Y166116D03*
X95250Y227584D03*
X107950Y227584D03*
X95250Y166116D03*
X107950Y166116D03*
X120650Y227584D03*
X120650Y166116D03*
X133350Y227584D03*
X133350Y166116D03*
X146050Y227584D03*
X158750Y227584D03*
X146050Y166116D03*
X158750Y166116D03*
X171450Y227584D03*
X171450Y166116D03*
D14*
X292100Y107950D03*
X361950Y120650D03*
D15*
X349250Y107950D02*
X292100Y107950D01*
X349250Y107950D02*
X361950Y120650D01*
D14*
X622300Y120650D03*
X685800Y120650D03*
D15*
X622300Y120650D01*
X971550Y679450D02*
X965200Y685800D01*
X19050Y685800D02*
X19050Y661416D01*
X19050Y685800D02*
X44450Y685800D01*
X971550Y679450D02*
X971550Y661416D01*
X965200Y685800D02*
X946150Y685800D01*
X920750Y685800D01*
X895350Y685800D01*
X850900Y685800D01*
X825500Y685800D01*
X800100Y685800D01*
X774700Y685800D01*
X723900Y685800D01*
X698500Y685800D01*
X673100Y685800D01*
X647700Y685800D01*
X603250Y685800D01*
X577850Y685800D01*
X552450Y685800D01*
X527050Y685800D01*
X469900Y685800D01*
X444500Y685800D01*
X419100Y685800D01*
X393700Y685800D01*
X349250Y685800D01*
X323850Y685800D01*
X298450Y685800D01*
X273050Y685800D01*
X215900Y685800D01*
X190500Y685800D01*
X165100Y685800D01*
X139700Y685800D01*
X95250Y685800D01*
X69850Y685800D01*
X44450Y685800D01*
X946150Y685800D02*
X946150Y661416D01*
X920750Y661416D02*
X920750Y685800D01*
X895350Y685800D02*
X895350Y661416D01*
X850900Y661416D02*
X850900Y685800D01*
X825500Y685800D02*
X825500Y661416D01*
X800100Y661416D02*
X800100Y685800D01*
X774700Y685800D02*
X774700Y661416D01*
X723900Y661416D02*
X723900Y685800D01*
X698500Y685800D02*
X698500Y661416D01*
X673100Y661416D02*
X673100Y685800D01*
X647700Y685800D02*
X647700Y661416D01*
X603250Y661416D02*
X603250Y685800D01*
X577850Y685800D02*
X577850Y661416D01*
X552450Y661416D02*
X552450Y685800D01*
X527050Y685800D02*
X527050Y661416D01*
X527050Y654050D01*
X469900Y661416D02*
X469900Y685800D01*
X444500Y685800D02*
X444500Y661416D01*
X419100Y661416D02*
X419100Y685800D01*
X393700Y685800D02*
X393700Y661416D01*
X349250Y661416D02*
X349250Y685800D01*
X323850Y685800D02*
X323850Y661416D01*
X298450Y661416D02*
X298450Y685800D01*
X273050Y685800D02*
X273050Y661416D01*
X215900Y661416D02*
X215900Y685800D01*
X190500Y685800D02*
X190500Y661416D01*
X165100Y661416D02*
X165100Y685800D01*
X139700Y685800D02*
X139700Y661416D01*
X95250Y661416D02*
X95250Y685800D01*
X69850Y685800D02*
X69850Y661416D01*
X44450Y661416D02*
X44450Y685800D01*
X825500Y661416D02*
X825500Y641350D01*
D14*
X825500Y641350D03*
D15*
X774700Y654050D02*
X774700Y661416D01*
X717550Y596900D02*
X717550Y577850D01*
X717550Y596900D02*
X774700Y654050D01*
D14*
X717550Y577850D03*
X247650Y565150D03*
D15*
X247650Y628650D01*
X273050Y654050D01*
X273050Y661416D01*
D14*
X44450Y685800D03*
X774700Y520700D03*
X831850Y520700D03*
D15*
X774700Y520700D01*
D14*
X508000Y558800D03*
D15*
X508000Y635000D02*
X527050Y654050D01*
X508000Y635000D02*
X508000Y558800D01*
D14*
X908050Y241300D03*
D15*
X908050Y221234D01*
D14*
X158750Y266700D03*
D15*
X165100Y266700D01*
X171450Y260350D01*
X171450Y227584D01*
X95250Y166116D02*
X95250Y146050D01*
D14*
X95250Y146050D03*
D15*
X95250Y166116D02*
X95250Y177800D01*
X107950Y190500D02*
X152400Y190500D01*
X171450Y209550D01*
X107950Y190500D02*
X95250Y177800D01*
X171450Y209550D02*
X171450Y227584D01*
D14*
X831850Y139700D03*
D15*
X831850Y159766D01*
D14*
X273050Y190500D03*
D15*
X273050Y146050D01*
X292100Y127000D02*
X292100Y107950D01*
X292100Y127000D02*
X273050Y146050D01*
X520700Y546100D02*
X508000Y558800D01*
D14*
X717550Y546100D03*
D15*
X520700Y546100D01*
D14*
X609600Y196850D03*
X285750Y203200D03*
D15*
X590550Y203200D01*
X596900Y196850D01*
X609600Y196850D01*
X984250Y704850D02*
X984250Y722884D01*
X984250Y704850D02*
X977900Y698500D01*
X958850Y698500D01*
X933450Y698500D01*
X908050Y698500D01*
X863600Y698500D01*
X838200Y698500D01*
X812800Y698500D01*
X787400Y698500D01*
X736600Y698500D01*
X711200Y698500D01*
X685800Y698500D01*
X660400Y698500D01*
X615950Y698500D01*
X590550Y698500D01*
X565150Y698500D01*
X539750Y698500D01*
X482600Y698500D01*
X457200Y698500D01*
X431800Y698500D01*
X406400Y698500D01*
X361950Y698500D01*
X336550Y698500D01*
X311150Y698500D01*
X285750Y698500D01*
X228600Y698500D01*
X203200Y698500D01*
X177800Y698500D01*
X152400Y698500D01*
X107950Y698500D01*
X82550Y698500D01*
X57150Y698500D01*
X31750Y698500D02*
X31750Y722884D01*
X57150Y722884D02*
X57150Y698500D01*
X82550Y698500D02*
X82550Y722884D01*
X107950Y722884D02*
X107950Y698500D01*
X152400Y698500D02*
X152400Y722884D01*
X177800Y722884D02*
X177800Y698500D01*
X203200Y698500D02*
X203200Y722884D01*
X228600Y722884D02*
X228600Y698500D01*
X285750Y698500D02*
X285750Y722884D01*
X311150Y722884D02*
X311150Y698500D01*
X336550Y698500D02*
X336550Y722884D01*
X361950Y722884D02*
X361950Y698500D01*
X406400Y698500D02*
X406400Y722884D01*
X431800Y722884D02*
X431800Y698500D01*
X457200Y698500D02*
X457200Y722884D01*
X482600Y722884D02*
X482600Y698500D01*
X539750Y698500D02*
X539750Y722884D01*
X565150Y722884D02*
X565150Y698500D01*
X590550Y698500D02*
X590550Y722884D01*
X615950Y722884D02*
X615950Y698500D01*
X660400Y698500D02*
X660400Y722884D01*
X685800Y722884D02*
X685800Y698500D01*
X711200Y698500D02*
X711200Y722884D01*
X736600Y722884D02*
X736600Y698500D01*
X787400Y698500D02*
X787400Y722884D01*
X812800Y722884D02*
X812800Y698500D01*
X838200Y698500D02*
X838200Y722884D01*
X863600Y722884D02*
X863600Y698500D01*
X908050Y698500D02*
X908050Y722884D01*
X933450Y722884D02*
X933450Y698500D01*
X958850Y698500D02*
X958850Y722884D01*
D14*
X755650Y723900D03*
D15*
X754634Y722884D01*
X736600Y722884D01*
D14*
X247650Y723900D03*
D15*
X246634Y722884D01*
X228600Y722884D01*
D14*
X508000Y723900D03*
D15*
X506984Y722884D01*
X482600Y722884D01*
X31750Y698500D02*
X19050Y698500D01*
X31750Y698500D02*
X57150Y698500D01*
D14*
X19050Y698500D03*
X920750Y444500D03*
X844550Y444500D03*
D15*
X920750Y444500D01*
D14*
X952500Y228600D03*
D15*
X920750Y228600D01*
X920750Y221234D01*
X82550Y184150D02*
X82550Y166116D01*
D14*
X82550Y184150D03*
X895350Y457200D03*
D15*
X609600Y457200D01*
D14*
X609600Y457200D03*
X234950Y495300D03*
D15*
X381000Y495300D01*
X393700Y482600D01*
X723900Y482600D01*
X736600Y469900D01*
D14*
X774700Y469900D03*
D15*
X736600Y469900D01*
D14*
X838200Y508000D03*
X774700Y508000D03*
D15*
X838200Y508000D01*
D14*
X76200Y476250D03*
D15*
X127000Y476250D01*
X171450Y520700D01*
X196850Y520700D01*
D14*
X196850Y520700D03*
D15*
X762000Y508000D02*
X774700Y508000D01*
X762000Y508000D02*
X749300Y520700D01*
X196850Y520700D01*
D14*
X76200Y425450D03*
D15*
X330200Y412750D02*
X342900Y400050D01*
X330200Y412750D02*
X88900Y412750D01*
X76200Y425450D01*
D14*
X342900Y400050D03*
X774700Y495300D03*
X857250Y495300D03*
D15*
X774700Y495300D01*
D14*
X76200Y488950D03*
D15*
X107950Y488950D01*
X152400Y533400D02*
X196850Y533400D01*
X152400Y533400D02*
X107950Y488950D01*
D14*
X196850Y533400D03*
D15*
X844550Y533400D02*
X857250Y520700D01*
X857250Y495300D01*
X844550Y533400D02*
X196850Y533400D01*
D14*
X63500Y438150D03*
X342900Y444500D03*
D15*
X69850Y444500D01*
X63500Y438150D01*
D14*
X844550Y558800D03*
D15*
X806450Y558800D01*
X781050Y584200D02*
X781050Y594846D01*
X781050Y584200D02*
X806450Y558800D01*
X984250Y641350D02*
X984250Y661416D01*
D14*
X984250Y641350D03*
D15*
X958850Y647700D02*
X958850Y661416D01*
X958850Y647700D02*
X952500Y641350D01*
X946150Y641350D01*
D14*
X946150Y641350D03*
D15*
X933450Y647700D02*
X933450Y661416D01*
X933450Y647700D02*
X927100Y641350D01*
X920750Y641350D01*
D14*
X920750Y641350D03*
D15*
X908050Y647700D02*
X908050Y661416D01*
X908050Y647700D02*
X901700Y641350D01*
X895350Y641350D01*
D14*
X895350Y641350D03*
D15*
X863600Y647700D02*
X863600Y661416D01*
X863600Y647700D02*
X876300Y635000D01*
X876300Y624354D01*
X838200Y641350D02*
X838200Y661416D01*
X838200Y641350D02*
X844550Y635000D01*
X844550Y624354D01*
X812800Y624354D02*
X812800Y661416D01*
X787400Y661416D02*
X787400Y641350D01*
X781050Y635000D01*
X781050Y624354D01*
X736600Y641350D02*
X736600Y661416D01*
D14*
X736600Y641350D03*
D15*
X711200Y647700D02*
X711200Y661416D01*
X711200Y647700D02*
X704850Y641350D01*
D14*
X704850Y641350D03*
D15*
X685800Y647700D02*
X685800Y661416D01*
X685800Y647700D02*
X679450Y641350D01*
X673100Y641350D01*
D14*
X673100Y641350D03*
D15*
X660400Y647700D02*
X660400Y661416D01*
X660400Y647700D02*
X654050Y641350D01*
X647700Y641350D01*
D14*
X647700Y641350D03*
D15*
X615950Y647700D02*
X615950Y661416D01*
X628650Y635000D02*
X628650Y624354D01*
X628650Y635000D02*
X615950Y647700D01*
X590550Y661416D02*
X590550Y628650D01*
X594846Y624354D02*
X596900Y624354D01*
X594846Y624354D02*
X590550Y628650D01*
X565150Y624354D02*
X565150Y661416D01*
X539750Y661416D02*
X539750Y641350D01*
X533400Y635000D01*
X533400Y624354D01*
X482600Y641350D02*
X482600Y661416D01*
D14*
X482600Y641350D03*
D15*
X457200Y647700D02*
X457200Y661416D01*
X457200Y647700D02*
X450850Y641350D01*
D14*
X450850Y641350D03*
D15*
X431800Y647700D02*
X431800Y661416D01*
X431800Y647700D02*
X425450Y641350D01*
X419100Y641350D01*
D14*
X419100Y641350D03*
D15*
X406400Y647700D02*
X406400Y661416D01*
X406400Y647700D02*
X400050Y641350D01*
X393700Y641350D01*
D14*
X393700Y641350D03*
D15*
X361950Y647700D02*
X361950Y661416D01*
X361950Y647700D02*
X374650Y635000D01*
X374650Y624354D01*
X336550Y641350D02*
X336550Y661416D01*
X336550Y641350D02*
X342900Y635000D01*
X342900Y624354D01*
X311150Y624354D02*
X311150Y661416D01*
X285750Y661416D02*
X285750Y641350D01*
X279400Y635000D01*
X279400Y624354D01*
D14*
X285750Y177800D03*
X609600Y171450D03*
D15*
X387350Y177800D02*
X285750Y177800D01*
X393700Y171450D02*
X527050Y171450D01*
X609600Y171450D01*
X393700Y171450D02*
X387350Y177800D01*
X82550Y209550D02*
X82550Y227584D01*
D14*
X82550Y209550D03*
D15*
X920750Y184150D02*
X920750Y159766D01*
X920750Y184150D02*
X914400Y190500D01*
X819150Y190500D02*
X800100Y171450D01*
X609600Y171450D01*
X819150Y190500D02*
X914400Y190500D01*
X527050Y184150D02*
X527050Y171450D01*
D14*
X527050Y184150D03*
X298450Y139700D03*
D15*
X381000Y139700D01*
X393700Y152400D01*
X495300Y133350D02*
X508000Y133350D01*
X495300Y133350D02*
X488950Y139700D01*
X488950Y146050D02*
X482600Y152400D01*
X393700Y152400D01*
D14*
X622300Y133350D03*
D15*
X704850Y133350D01*
X711200Y139700D01*
X711200Y146050D01*
X723900Y158750D01*
X806450Y158750D01*
X488950Y146050D02*
X488950Y139700D01*
X95250Y196850D02*
X95250Y227584D01*
D14*
X95250Y196850D03*
D15*
X908050Y177800D02*
X908050Y159766D01*
X825500Y177800D02*
X806450Y158750D01*
X825500Y177800D02*
X908050Y177800D01*
X508000Y146050D02*
X508000Y133350D01*
D14*
X508000Y146050D03*
D15*
X508000Y133350D02*
X622300Y133350D01*
X197866Y166116D02*
X171450Y166116D01*
X349250Y317500D02*
X349250Y342900D01*
X387350Y381000D01*
X577850Y361950D02*
X615950Y361950D01*
X349250Y317500D02*
X197866Y166116D01*
X387350Y381000D02*
X558800Y381000D01*
X577850Y361950D01*
D14*
X615950Y361950D03*
D15*
X971550Y722884D02*
X971550Y749300D01*
X977900Y755650D01*
X977900Y762000D01*
X946150Y749300D02*
X946150Y722884D01*
X946150Y749300D02*
X952500Y755650D01*
X952500Y762000D01*
X920750Y749300D02*
X920750Y722884D01*
X920750Y749300D02*
X927100Y755650D01*
X927100Y762000D01*
X895350Y749300D02*
X895350Y722884D01*
X895350Y749300D02*
X901700Y755650D01*
X901700Y762000D01*
X857250Y762000D02*
X857250Y755650D01*
X850900Y749300D01*
X850900Y722884D01*
X825500Y749300D02*
X831850Y755650D01*
X831850Y762000D01*
X825500Y749300D02*
X825500Y722884D01*
X800100Y749300D02*
X806450Y755650D01*
X806450Y762000D01*
X800100Y749300D02*
X800100Y722884D01*
X774700Y722884D02*
X774700Y749300D01*
X781050Y755650D01*
X781050Y762000D01*
X723900Y735584D02*
X723900Y722884D01*
X723900Y735584D02*
X736600Y748284D01*
X736600Y762000D01*
X711200Y762000D02*
X711200Y748284D01*
X698500Y735584D01*
X698500Y722884D01*
X685800Y748284D02*
X685800Y762000D01*
X685800Y748284D02*
X673100Y735584D01*
X673100Y722884D01*
X660400Y748284D02*
X660400Y762000D01*
X660400Y748284D02*
X647700Y735584D01*
X647700Y722884D01*
X615950Y748284D02*
X615950Y762000D01*
X615950Y748284D02*
X603250Y735584D01*
X603250Y722884D01*
X590550Y748284D02*
X590550Y762000D01*
X590550Y748284D02*
X577850Y735584D01*
X577850Y722884D01*
X565150Y748284D02*
X565150Y762000D01*
X565150Y748284D02*
X552450Y735584D01*
X552450Y722884D01*
X539750Y748284D02*
X539750Y762000D01*
X539750Y748284D02*
X527050Y735584D01*
X527050Y722884D01*
X469900Y749300D02*
X457200Y762000D01*
X469900Y749300D02*
X469900Y722884D01*
X431800Y754634D02*
X431800Y762000D01*
X431800Y754634D02*
X444500Y741934D01*
X444500Y722884D01*
X406400Y754634D02*
X406400Y762000D01*
X419100Y741934D02*
X419100Y722884D01*
X419100Y741934D02*
X406400Y754634D01*
X381000Y748284D02*
X381000Y762000D01*
X393700Y735584D02*
X393700Y722884D01*
X393700Y735584D02*
X381000Y748284D01*
X349250Y736600D02*
X336550Y749300D01*
X336550Y762000D01*
X349250Y736600D02*
X349250Y722884D01*
X311150Y749300D02*
X311150Y762000D01*
X311150Y749300D02*
X323850Y736600D01*
X323850Y722884D01*
X285750Y748284D02*
X285750Y762000D01*
X285750Y748284D02*
X298450Y735584D01*
X298450Y722884D01*
X260350Y741934D02*
X260350Y762000D01*
X260350Y741934D02*
X273050Y729234D01*
X273050Y722884D01*
X857250Y336550D02*
X857250Y221234D01*
X895350Y374650D02*
X933450Y374650D01*
X952500Y355600D01*
X895350Y374650D02*
X857250Y336550D01*
X882650Y298450D02*
X882650Y221234D01*
X882650Y298450D02*
X895350Y311150D01*
X946150Y311150D01*
X952500Y304800D01*
X895350Y260350D02*
X895350Y221234D01*
X895350Y260350D02*
X914400Y279400D01*
X952500Y279400D01*
X869950Y317500D02*
X869950Y221234D01*
X895350Y342900D02*
X939800Y342900D01*
X952500Y330200D01*
X895350Y342900D02*
X869950Y317500D01*
X895350Y159766D02*
X895350Y139700D01*
X908050Y127000D01*
X933450Y127000D01*
X939800Y120650D01*
X939800Y44450D01*
X882650Y133350D02*
X882650Y159766D01*
X901700Y114300D02*
X901700Y57150D01*
X914400Y44450D01*
X901700Y114300D02*
X882650Y133350D01*
X869950Y107950D02*
X869950Y159766D01*
X876300Y101600D02*
X876300Y57150D01*
X889000Y44450D01*
X876300Y101600D02*
X869950Y107950D01*
X857250Y146050D02*
X857250Y159766D01*
X857250Y146050D02*
X850900Y139700D01*
X850900Y95250D01*
X857250Y88900D02*
X857250Y50800D01*
X863600Y44450D01*
X857250Y88900D02*
X850900Y95250D01*
D14*
X800100Y69850D03*
D15*
X800100Y139700D01*
D14*
X800100Y139700D03*
X774700Y69850D03*
D15*
X774700Y139700D01*
D14*
X774700Y139700D03*
X749300Y69850D03*
D15*
X749300Y139700D01*
D14*
X749300Y139700D03*
X723900Y69850D03*
D15*
X723900Y139700D01*
D14*
X723900Y139700D03*
X628650Y69850D03*
X584200Y69850D03*
D15*
X628650Y69850D01*
D14*
X476250Y69850D03*
D15*
X476250Y139700D01*
D14*
X476250Y139700D03*
X450850Y69850D03*
X450850Y139700D03*
D15*
X450850Y69850D01*
D14*
X425450Y69850D03*
D15*
X425450Y139700D01*
D14*
X425450Y139700D03*
X393700Y69850D03*
D15*
X400050Y76200D02*
X400050Y139700D01*
X400050Y76200D02*
X393700Y69850D01*
D14*
X400050Y139700D03*
X304800Y69850D03*
X266700Y69850D03*
D15*
X304800Y69850D01*
D14*
X692150Y234950D03*
D15*
X711200Y234950D01*
X831850Y221234D02*
X831850Y209550D01*
X825500Y203200D01*
X742950Y203200D01*
X711200Y234950D01*
D14*
X711200Y215900D03*
D15*
X419100Y215900D02*
X393700Y241300D01*
X419100Y215900D02*
X711200Y215900D01*
D14*
X361950Y241300D03*
D15*
X393700Y241300D01*
D14*
X101600Y501650D03*
D15*
X101600Y539750D01*
X120650Y558800D01*
X196850Y558800D01*
D14*
X196850Y558800D03*
D15*
X228600Y641350D02*
X228600Y661416D01*
D14*
X228600Y641350D03*
D15*
X203200Y647700D02*
X203200Y661416D01*
X203200Y647700D02*
X196850Y641350D01*
D14*
X196850Y641350D03*
D15*
X177800Y647700D02*
X177800Y661416D01*
X177800Y647700D02*
X171450Y641350D01*
X165100Y641350D01*
D14*
X165100Y641350D03*
D15*
X152400Y647700D02*
X152400Y661416D01*
X152400Y647700D02*
X146050Y641350D01*
X139700Y641350D01*
D14*
X139700Y641350D03*
D15*
X107950Y647700D02*
X107950Y661416D01*
X120650Y635000D02*
X120650Y624354D01*
X120650Y635000D02*
X107950Y647700D01*
X88900Y635000D02*
X88900Y624354D01*
X88900Y635000D02*
X82550Y641350D01*
X82550Y661416D01*
X57150Y661416D02*
X57150Y624354D01*
X25400Y624354D02*
X25400Y635000D01*
X31750Y641350D01*
X31750Y661416D01*
X215900Y722884D02*
X215900Y762000D01*
X190500Y762000D02*
X190500Y722884D01*
X165100Y722884D02*
X165100Y762000D01*
X139700Y762000D02*
X139700Y722884D01*
X96520Y724154D02*
X96520Y762000D01*
X96520Y724154D02*
X95250Y722884D01*
X71120Y724154D02*
X71120Y762000D01*
X71120Y724154D02*
X69850Y722884D01*
X45720Y724154D02*
X45720Y762000D01*
X45720Y724154D02*
X44450Y722884D01*
X20320Y724154D02*
X20320Y762000D01*
X20320Y724154D02*
X19050Y722884D01*
X146050Y63500D02*
X127000Y44450D01*
X146050Y63500D02*
X146050Y166116D01*
X101600Y63500D02*
X101600Y44450D01*
X101600Y63500D02*
X133350Y95250D01*
X133350Y166116D01*
X76200Y69850D02*
X76200Y44450D01*
X120650Y114300D02*
X120650Y166116D01*
X120650Y114300D02*
X76200Y69850D01*
X50800Y76200D02*
X50800Y44450D01*
X107950Y133350D02*
X107950Y166116D01*
X107950Y133350D02*
X50800Y76200D01*
X50800Y279400D02*
X95250Y279400D01*
X107950Y266700D01*
X107950Y227584D01*
X107950Y304800D02*
X50800Y304800D01*
X107950Y304800D02*
X120650Y292100D01*
X120650Y227584D01*
X114300Y330200D02*
X50800Y330200D01*
X114300Y330200D02*
X133350Y311150D01*
X133350Y266700D01*
X133350Y227584D01*
X57150Y349250D02*
X50800Y355600D01*
X57150Y349250D02*
X120650Y349250D01*
X146050Y323850D01*
X146050Y227584D01*
X158750Y166116D02*
X158750Y146050D01*
X165100Y139700D01*
X241300Y139700D02*
X260350Y158750D01*
X260350Y209550D01*
X273050Y222250D01*
X387350Y222250D01*
X241300Y139700D02*
X165100Y139700D01*
D14*
X387350Y222250D03*
D15*
X120650Y577850D02*
X120650Y594846D01*
X120650Y577850D02*
X88900Y546100D01*
D14*
X88900Y546100D03*
D15*
X88900Y565150D02*
X88900Y594846D01*
X88900Y565150D02*
X76200Y552450D01*
D14*
X76200Y552450D03*
D15*
X63500Y588496D02*
X57150Y594846D01*
X63500Y588496D02*
X63500Y552450D01*
D14*
X63500Y552450D03*
D15*
X25400Y571500D02*
X25400Y594846D01*
X25400Y571500D02*
X44450Y552450D01*
D14*
X44450Y552450D03*
X260350Y546100D03*
D15*
X260350Y565150D01*
X279400Y584200D02*
X279400Y594846D01*
X279400Y584200D02*
X260350Y565150D01*
D14*
X311150Y577850D03*
D15*
X311150Y594846D01*
D14*
X342900Y577850D03*
D15*
X342900Y594846D01*
D14*
X374650Y577850D03*
D15*
X374650Y594846D01*
D14*
X628650Y558800D03*
D15*
X628650Y594846D01*
D14*
X596900Y577850D03*
D15*
X596900Y594846D01*
D14*
X571500Y577850D03*
D15*
X565150Y584200D01*
X565150Y594846D01*
D14*
X533400Y577850D03*
D15*
X533400Y594846D01*
D14*
X857250Y558800D03*
D15*
X857250Y565150D01*
X850900Y571500D01*
X829796Y571500D02*
X812800Y588496D01*
X812800Y594846D01*
X829796Y571500D02*
X850900Y571500D01*
D14*
X869950Y558800D03*
D15*
X846604Y594846D02*
X844550Y594846D01*
X869950Y571500D02*
X869950Y558800D01*
X869950Y571500D02*
X846604Y594846D01*
D14*
X882650Y558800D03*
D15*
X882650Y577850D01*
X876300Y584200D01*
X876300Y594846D01*
D14*
X609600Y323850D03*
X488950Y323850D03*
X419100Y323850D03*
X565150Y323850D03*
D15*
X488950Y323850D02*
X419100Y323850D01*
X488950Y323850D02*
X565150Y323850D01*
X609600Y323850D01*
X622300Y323850D01*
X635000Y336550D01*
X635000Y444500D02*
X584200Y444500D01*
X635000Y444500D02*
X635000Y336550D01*
D14*
X584200Y444500D03*
D15*
X571500Y457200D01*
X501650Y457200D01*
D14*
X501650Y457200D03*
D15*
X495300Y463550D01*
X450850Y463550D01*
D14*
X450850Y463550D03*
M02*
