G04 EAGLE Gerber RS-274X export*
G75*
%MOMM*%
%FSLAX34Y34*%
%LPD*%
%INTop Copper*%
%IPPOS*%
%AMOC8*
5,1,8,0,0,1.08239X$1,22.5*%
G01*
%ADD10R,0.660400X2.032000*%
%ADD11R,2.032000X0.660400*%
%ADD12R,1.164600X1.815300*%
%ADD13R,1.815300X1.164600*%
%ADD14C,1.800000*%
%ADD15C,1.508000*%
%ADD16R,0.457200X1.168400*%
%ADD17R,1.168400X0.457200*%
%ADD18C,0.508000*%
%ADD19C,0.756400*%
%ADD20C,0.304800*%


D10*
X609600Y153416D03*
X609600Y214884D03*
X622300Y153416D03*
X635000Y153416D03*
X622300Y214884D03*
X635000Y214884D03*
X647700Y153416D03*
X647700Y214884D03*
X660400Y153416D03*
X660400Y214884D03*
X673100Y153416D03*
X685800Y153416D03*
X673100Y214884D03*
X685800Y214884D03*
X698500Y153416D03*
X698500Y214884D03*
X285750Y159766D03*
X285750Y221234D03*
X298450Y159766D03*
X311150Y159766D03*
X298450Y221234D03*
X311150Y221234D03*
X323850Y159766D03*
X323850Y221234D03*
X336550Y159766D03*
X336550Y221234D03*
X349250Y159766D03*
X361950Y159766D03*
X349250Y221234D03*
X361950Y221234D03*
X374650Y159766D03*
X374650Y221234D03*
X920750Y538734D03*
X920750Y477266D03*
X908050Y538734D03*
X895350Y538734D03*
X908050Y477266D03*
X895350Y477266D03*
X882650Y538734D03*
X882650Y477266D03*
X869950Y538734D03*
X869950Y477266D03*
X857250Y538734D03*
X844550Y538734D03*
X857250Y477266D03*
X844550Y477266D03*
X831850Y538734D03*
X831850Y477266D03*
D11*
X693166Y558800D03*
X754634Y558800D03*
X693166Y546100D03*
X693166Y533400D03*
X754634Y546100D03*
X754634Y533400D03*
X693166Y520700D03*
X754634Y520700D03*
X693166Y508000D03*
X754634Y508000D03*
X693166Y495300D03*
X693166Y482600D03*
X754634Y495300D03*
X754634Y482600D03*
X693166Y469900D03*
X754634Y469900D03*
X278384Y469900D03*
X216916Y469900D03*
X278384Y482600D03*
X278384Y495300D03*
X216916Y482600D03*
X216916Y495300D03*
X278384Y508000D03*
X216916Y508000D03*
X278384Y520700D03*
X216916Y520700D03*
X278384Y533400D03*
X278384Y546100D03*
X216916Y533400D03*
X216916Y546100D03*
X278384Y558800D03*
X216916Y558800D03*
D12*
X903754Y361950D03*
X874246Y361950D03*
X903754Y330200D03*
X874246Y330200D03*
X903754Y298450D03*
X874246Y298450D03*
X903754Y266700D03*
X874246Y266700D03*
D13*
X946150Y93196D03*
X946150Y122704D03*
X914400Y93196D03*
X914400Y122704D03*
X882650Y93196D03*
X882650Y122704D03*
X850900Y93196D03*
X850900Y122704D03*
X806450Y93196D03*
X806450Y122704D03*
X774700Y93196D03*
X774700Y122704D03*
X742950Y93196D03*
X742950Y122704D03*
X711200Y93196D03*
X711200Y122704D03*
X603250Y93196D03*
X603250Y122704D03*
X571500Y93196D03*
X571500Y122704D03*
X539750Y93196D03*
X539750Y122704D03*
X508000Y93196D03*
X508000Y122704D03*
X476250Y93196D03*
X476250Y122704D03*
X444500Y93196D03*
X444500Y122704D03*
X412750Y93196D03*
X412750Y122704D03*
X381000Y93196D03*
X381000Y122704D03*
X292100Y93196D03*
X292100Y122704D03*
X260350Y93196D03*
X260350Y122704D03*
X228600Y93196D03*
X228600Y122704D03*
X196850Y93196D03*
X196850Y122704D03*
X977900Y594846D03*
X977900Y624354D03*
X946150Y594846D03*
X946150Y624354D03*
X914400Y594846D03*
X914400Y624354D03*
X882650Y594846D03*
X882650Y624354D03*
X734060Y594846D03*
X734060Y624354D03*
X701040Y594846D03*
X701040Y624354D03*
X668020Y594846D03*
X668020Y624354D03*
X635000Y594846D03*
X635000Y624354D03*
X482600Y594846D03*
X482600Y624354D03*
X450850Y594846D03*
X450850Y624354D03*
X419100Y594846D03*
X419100Y624354D03*
X387350Y594846D03*
X387350Y624354D03*
D14*
X977900Y762000D03*
X901700Y762000D03*
X927100Y762000D03*
X952500Y762000D03*
X857250Y762000D03*
X781050Y762000D03*
X806450Y762000D03*
X831850Y762000D03*
X736600Y762000D03*
X660400Y762000D03*
X685800Y762000D03*
X711200Y762000D03*
X615950Y762000D03*
X539750Y762000D03*
X565150Y762000D03*
X590550Y762000D03*
X457200Y762000D03*
X381000Y762000D03*
X406400Y762000D03*
X431800Y762000D03*
X336550Y762000D03*
X260350Y762000D03*
X285750Y762000D03*
X311150Y762000D03*
X952500Y355600D03*
X952500Y279400D03*
X952500Y304800D03*
X952500Y330200D03*
X939800Y44450D03*
X863600Y44450D03*
X889000Y44450D03*
X914400Y44450D03*
X787400Y44450D03*
X711200Y44450D03*
X736600Y44450D03*
X762000Y44450D03*
X603250Y44450D03*
X527050Y44450D03*
X552450Y44450D03*
X577850Y44450D03*
X463550Y44450D03*
X387350Y44450D03*
X412750Y44450D03*
X438150Y44450D03*
X279400Y44450D03*
X203200Y44450D03*
X228600Y44450D03*
X254000Y44450D03*
D15*
X565150Y273050D03*
X539750Y273050D03*
X514350Y273050D03*
X488950Y273050D03*
X463550Y273050D03*
X438150Y273050D03*
X412750Y273050D03*
X565150Y501650D03*
X539750Y501650D03*
X514350Y501650D03*
X488950Y501650D03*
X463550Y501650D03*
X438150Y501650D03*
X412750Y501650D03*
X590550Y273050D03*
X590550Y501650D03*
D10*
X127000Y519684D03*
X127000Y458216D03*
X114300Y519684D03*
X101600Y519684D03*
X114300Y458216D03*
X101600Y458216D03*
X88900Y519684D03*
X88900Y458216D03*
X76200Y519684D03*
X76200Y458216D03*
X63500Y519684D03*
X50800Y519684D03*
X63500Y458216D03*
X50800Y458216D03*
X38100Y519684D03*
X38100Y458216D03*
D13*
X228600Y594846D03*
X228600Y624354D03*
X196850Y594846D03*
X196850Y624354D03*
X165100Y594846D03*
X165100Y624354D03*
X133350Y594846D03*
X133350Y624354D03*
D14*
X215900Y762000D03*
X139700Y762000D03*
X165100Y762000D03*
X190500Y762000D03*
X96520Y762000D03*
X20320Y762000D03*
X45720Y762000D03*
X71120Y762000D03*
X127000Y44450D03*
X50800Y44450D03*
X76200Y44450D03*
X101600Y44450D03*
X50800Y279400D03*
X50800Y355600D03*
X50800Y330200D03*
X50800Y304800D03*
D13*
X133350Y93196D03*
X133350Y122704D03*
X101600Y93196D03*
X101600Y122704D03*
X69850Y93196D03*
X69850Y122704D03*
X38100Y93196D03*
X38100Y122704D03*
D12*
X105896Y266700D03*
X135404Y266700D03*
X105896Y298450D03*
X135404Y298450D03*
X105896Y330200D03*
X135404Y330200D03*
X105896Y361950D03*
X135404Y361950D03*
X601196Y361950D03*
X630704Y361950D03*
X550396Y323850D03*
X579904Y323850D03*
D16*
X558546Y352552D03*
X571754Y352552D03*
X565150Y371348D03*
X463296Y352552D03*
X476504Y352552D03*
X469900Y371348D03*
X412496Y352552D03*
X425704Y352552D03*
X419100Y371348D03*
D12*
X505946Y361950D03*
X535454Y361950D03*
X503704Y323850D03*
X474196Y323850D03*
X389404Y361950D03*
X359896Y361950D03*
X433854Y323850D03*
X404346Y323850D03*
D16*
X571754Y441198D03*
X558546Y441198D03*
X565150Y422402D03*
D17*
X466598Y406146D03*
X466598Y419354D03*
X447802Y412750D03*
X377698Y431546D03*
X377698Y444754D03*
X358902Y438150D03*
D12*
X529104Y431800D03*
X499596Y431800D03*
D13*
X609600Y427504D03*
X609600Y397996D03*
D12*
X465604Y450850D03*
X436096Y450850D03*
X325904Y387350D03*
X296396Y387350D03*
D13*
X406400Y459254D03*
X406400Y429746D03*
D12*
X325904Y431800D03*
X296396Y431800D03*
D18*
X374650Y135404D02*
X374650Y122704D01*
X374650Y135404D02*
X374650Y159766D01*
X361950Y122704D02*
X361950Y120650D01*
X361950Y122704D02*
X374650Y135404D01*
D19*
X292100Y107950D03*
X361950Y120650D03*
D18*
X615950Y120650D02*
X622300Y120650D01*
D19*
X622300Y120650D03*
D18*
X687854Y122704D02*
X698500Y122704D01*
X687854Y122704D02*
X685800Y120650D01*
D19*
X685800Y120650D03*
D18*
X698500Y122704D02*
X698500Y153416D01*
X882650Y457200D02*
X882650Y477266D01*
X882650Y122704D02*
X914400Y122704D01*
X882650Y122704D02*
X850900Y122704D01*
X874246Y298450D02*
X874246Y330200D01*
X874246Y298450D02*
X874246Y266700D01*
X806450Y122704D02*
X774700Y122704D01*
X742950Y122704D01*
X711200Y122704D01*
X476250Y122704D02*
X444500Y122704D01*
X412750Y122704D01*
X381000Y122704D01*
X228600Y122704D02*
X196850Y122704D01*
X228600Y122704D02*
X260350Y122704D01*
X292100Y122704D01*
X476250Y122704D02*
X508000Y122704D01*
X539750Y122704D01*
X571500Y122704D01*
X603250Y122704D01*
X914400Y122704D02*
X946150Y122704D01*
D19*
X825500Y641350D03*
D18*
X825500Y565150D02*
X831850Y558800D01*
X831850Y538734D01*
X825500Y565150D02*
X825500Y641350D01*
X882650Y508000D02*
X882650Y477266D01*
X869950Y520700D02*
X831850Y520700D01*
X869950Y520700D02*
X882650Y508000D01*
X831850Y520700D02*
X831850Y538734D01*
X704850Y469900D02*
X693166Y469900D01*
X704850Y469900D02*
X717550Y482600D01*
X717550Y520700D02*
X754634Y520700D01*
X717550Y520700D02*
X717550Y482600D01*
D19*
X717550Y577850D03*
D18*
X717550Y546100D02*
X717550Y520700D01*
X717550Y546100D02*
X717550Y577850D01*
X38100Y519684D02*
X38100Y501650D01*
X82550Y501650D02*
X88900Y495300D01*
X88900Y458216D01*
X82550Y501650D02*
X38100Y501650D01*
X254000Y558800D02*
X278384Y558800D01*
X254000Y558800D02*
X247650Y552450D01*
X247650Y514350D02*
X241300Y508000D01*
X216916Y508000D01*
X247650Y514350D02*
X247650Y552450D01*
X247650Y565150D01*
D19*
X247650Y565150D03*
D18*
X44450Y576834D02*
X44450Y685800D01*
X44450Y576834D02*
X25400Y557784D01*
X25400Y532384D01*
X38100Y519684D01*
D19*
X44450Y685800D03*
D18*
X754634Y520700D02*
X774700Y520700D01*
D19*
X774700Y520700D03*
X831850Y520700D03*
D18*
X565150Y527050D02*
X565150Y501650D01*
X565150Y527050D02*
X546100Y546100D01*
X520700Y546100D01*
X508000Y558800D01*
D19*
X508000Y558800D03*
D18*
X874246Y361950D02*
X874246Y330200D01*
X874246Y361950D02*
X874246Y448796D01*
X882650Y457200D01*
X874246Y266700D02*
X876300Y264646D01*
X876300Y247650D01*
X882650Y241300D01*
X908050Y241300D01*
D19*
X908050Y241300D03*
D18*
X933450Y241300D01*
X938850Y235900D01*
X938850Y130004D02*
X946150Y122704D01*
X938850Y130004D02*
X938850Y235900D01*
X69850Y122704D02*
X38100Y122704D01*
X69850Y122704D02*
X101600Y122704D01*
X133350Y122704D01*
X196850Y122704D01*
X158750Y266700D02*
X135404Y266700D01*
D19*
X158750Y266700D03*
D18*
X135404Y266700D02*
X135404Y298450D01*
X135404Y330200D01*
X135404Y361950D01*
X292100Y122704D02*
X292100Y107950D01*
X101600Y122704D02*
X95250Y129054D01*
X95250Y146050D01*
D19*
X95250Y146050D03*
D18*
X806450Y122704D02*
X831850Y122704D01*
X850900Y122704D01*
X613896Y122704D02*
X603250Y122704D01*
X613896Y122704D02*
X615950Y120650D01*
X603250Y122704D02*
X596900Y129054D01*
X596900Y177800D01*
X603250Y184150D01*
X615950Y184150D01*
X622300Y190500D01*
X622300Y214884D01*
X831850Y139700D02*
X831850Y122704D01*
D19*
X831850Y139700D03*
D18*
X298450Y196850D02*
X298450Y221234D01*
X298450Y196850D02*
X292100Y190500D01*
X273050Y190500D01*
D19*
X273050Y190500D03*
X717550Y546100D03*
D18*
X711200Y122704D02*
X698500Y122704D01*
X381000Y122704D02*
X374650Y122704D01*
X609600Y196850D02*
X609600Y214884D01*
D19*
X609600Y196850D03*
D18*
X285750Y203200D02*
X285750Y221234D01*
D19*
X285750Y203200D03*
D18*
X844550Y444500D02*
X844550Y477266D01*
X755650Y559816D02*
X754634Y558800D01*
X755650Y558800D02*
X774700Y558800D01*
X844550Y488950D02*
X844550Y477266D01*
X844550Y488950D02*
X774700Y558800D01*
X754634Y482600D02*
X806450Y482600D01*
X819150Y469900D02*
X819150Y457200D01*
X831850Y444500D01*
X844550Y444500D01*
X819150Y469900D02*
X806450Y482600D01*
X755650Y558800D02*
X755650Y559816D01*
X755650Y723900D01*
D19*
X755650Y723900D03*
D18*
X228600Y546100D02*
X216916Y546100D01*
X228600Y546100D02*
X234950Y552450D01*
X234950Y571500D01*
X247650Y584200D01*
X247650Y723900D01*
D19*
X247650Y723900D03*
D18*
X590550Y501650D02*
X609600Y501650D01*
X736600Y482600D02*
X754634Y482600D01*
X590550Y501650D02*
X590550Y520700D01*
X552450Y558800D01*
X527050Y558800D02*
X508000Y577850D01*
X508000Y723900D01*
X527050Y558800D02*
X552450Y558800D01*
D19*
X508000Y723900D03*
D18*
X50800Y476250D02*
X50800Y458216D01*
X50800Y476250D02*
X44450Y482600D01*
X25400Y482600D01*
D19*
X19050Y698500D03*
D18*
X12700Y692150D01*
X12700Y495300D01*
X19050Y488950D01*
X25400Y482600D01*
X50800Y458216D02*
X50800Y425450D01*
X63500Y412750D01*
X114300Y412750D01*
X127000Y425450D01*
X127000Y444500D01*
X127000Y458216D01*
X184150Y539750D02*
X190500Y546100D01*
X216916Y546100D01*
X152400Y469900D02*
X127000Y444500D01*
X920750Y444500D02*
X920750Y477266D01*
D19*
X920750Y444500D03*
X844550Y444500D03*
D18*
X920750Y444500D02*
X965200Y444500D01*
X977900Y431800D01*
X977900Y241300D01*
X965200Y228600D01*
X952500Y228600D01*
D19*
X952500Y228600D03*
D18*
X359896Y361950D02*
X359896Y374650D01*
X378946Y393700D01*
D19*
X82550Y184150D03*
D18*
X19050Y247650D02*
X19050Y488950D01*
X19050Y247650D02*
X82550Y184150D01*
X535454Y361950D02*
X535454Y393700D01*
X628650Y361950D02*
X630704Y361950D01*
X628650Y361950D02*
X609600Y381000D01*
X630704Y361950D02*
X630704Y256054D01*
X609600Y234950D01*
X609600Y214884D01*
X609600Y393700D02*
X535454Y393700D01*
X378946Y393700D01*
X609600Y501650D02*
X641350Y469900D01*
X711200Y457200D02*
X736600Y482600D01*
X711200Y457200D02*
X673100Y457200D01*
X660400Y469900D01*
X641350Y469900D01*
X609600Y397996D02*
X609600Y393700D01*
X609600Y381000D01*
X296396Y387350D02*
X296396Y431800D01*
X321796Y361950D02*
X359896Y361950D01*
X321796Y361950D02*
X296396Y387350D01*
X216916Y466830D02*
X216916Y469900D01*
X216916Y466830D02*
X296396Y387350D01*
X216916Y469900D02*
X184150Y469900D01*
X152400Y469900D01*
X184150Y469900D02*
X184150Y539750D01*
X591000Y427504D02*
X609600Y427504D01*
X591000Y427504D02*
X585898Y422402D01*
X565150Y422402D01*
X609600Y427504D02*
X609600Y457200D01*
X895350Y457200D02*
X895350Y477266D01*
D19*
X895350Y457200D03*
X609600Y457200D03*
D18*
X831850Y477266D02*
X831850Y482600D01*
X781050Y533400D01*
X754634Y533400D01*
X234950Y495300D02*
X216916Y495300D01*
D19*
X234950Y495300D03*
X774700Y469900D03*
D18*
X754634Y469900D01*
X754634Y508000D02*
X774700Y508000D01*
D19*
X838200Y508000D03*
X774700Y508000D03*
D18*
X76200Y476250D02*
X76200Y458216D01*
D19*
X76200Y476250D03*
X196850Y520700D03*
D18*
X216916Y520700D01*
X838200Y508000D02*
X863600Y508000D01*
X869950Y501650D01*
X869950Y477266D01*
X342900Y387350D02*
X325904Y387350D01*
X342900Y387350D02*
X349250Y387350D01*
X374650Y412750D02*
X447802Y412750D01*
X374650Y412750D02*
X349250Y387350D01*
X76200Y425450D02*
X76200Y458216D01*
D19*
X76200Y425450D03*
X342900Y400050D03*
D18*
X342900Y387350D01*
X857250Y477266D02*
X857250Y495300D01*
X774700Y495300D02*
X754634Y495300D01*
D19*
X774700Y495300D03*
X857250Y495300D03*
D18*
X63500Y482600D02*
X63500Y458216D01*
X63500Y482600D02*
X69850Y488950D01*
X76200Y488950D01*
D19*
X76200Y488950D03*
X196850Y533400D03*
D18*
X216916Y533400D01*
X325904Y431800D02*
X342900Y431800D01*
X352552Y431800D01*
X358902Y438150D01*
X342900Y431800D02*
X342900Y444500D01*
X63500Y438150D02*
X63500Y458216D01*
D19*
X63500Y438150D03*
X342900Y444500D03*
D18*
X844550Y538734D02*
X844550Y558800D01*
D19*
X844550Y558800D03*
X984250Y641350D03*
D18*
X977900Y635000D02*
X977900Y624354D01*
X977900Y635000D02*
X984250Y641350D01*
D19*
X946150Y641350D03*
D18*
X946150Y624354D01*
D19*
X920750Y641350D03*
D18*
X914400Y635000D02*
X914400Y624354D01*
X914400Y635000D02*
X920750Y641350D01*
D19*
X895350Y641350D03*
D18*
X882650Y635000D02*
X882650Y624354D01*
X882650Y635000D02*
X889000Y641350D01*
X895350Y641350D01*
X734060Y594846D02*
X734060Y554990D01*
X742950Y546100D01*
X754634Y546100D01*
D19*
X736600Y641350D03*
D18*
X736600Y626894D01*
X734060Y624354D01*
D19*
X704850Y641350D03*
D18*
X698500Y635000D01*
X698500Y626894D01*
X701040Y624354D01*
D19*
X673100Y641350D03*
D18*
X666750Y635000D01*
X666750Y625624D01*
X668020Y624354D01*
D19*
X647700Y641350D03*
D18*
X641350Y641350D01*
X635000Y635000D01*
X635000Y624354D01*
D19*
X482600Y641350D03*
D18*
X482600Y624354D01*
D19*
X450850Y641350D03*
D18*
X450850Y624354D01*
D19*
X419100Y641350D03*
D18*
X419100Y624354D01*
D19*
X393700Y641350D03*
D18*
X387350Y635000D02*
X387350Y624354D01*
X387350Y635000D02*
X393700Y641350D01*
X285750Y177800D02*
X285750Y159766D01*
X609600Y153416D02*
X609600Y171450D01*
D19*
X285750Y177800D03*
X609600Y171450D03*
D18*
X505946Y361950D02*
X505946Y364004D01*
X488950Y381000D01*
X479552Y381000D01*
X469900Y371348D01*
D19*
X82550Y209550D03*
D18*
X101600Y209550D01*
X133350Y177800D01*
X285750Y177800D01*
X505946Y361950D02*
X527050Y340846D01*
X527050Y298450D01*
D19*
X527050Y184150D03*
D18*
X527050Y247650D01*
D20*
X527050Y298450D01*
D19*
X298450Y139700D03*
D18*
X298450Y159766D01*
X622300Y153416D02*
X622300Y133350D01*
D19*
X622300Y133350D03*
D18*
X389404Y361950D02*
X389404Y376704D01*
X393700Y381000D01*
X412750Y381000D01*
X419100Y374650D01*
X419100Y371348D01*
D19*
X95250Y196850D03*
D18*
X95250Y165100D02*
X120650Y139700D01*
X298450Y139700D01*
X95250Y165100D02*
X95250Y196850D01*
D19*
X508000Y146050D03*
D18*
X508000Y152400D01*
X381000Y353546D02*
X389404Y361950D01*
X381000Y279400D02*
X508000Y152400D01*
X381000Y279400D02*
X381000Y353546D01*
X601196Y361950D02*
X601196Y370354D01*
X590550Y381000D01*
X574802Y381000D01*
X565150Y371348D01*
D19*
X615950Y361950D03*
D18*
X601196Y361950D01*
X946150Y361950D02*
X952500Y355600D01*
X946150Y361950D02*
X903754Y361950D01*
X952500Y304800D02*
X946150Y298450D01*
X903754Y298450D01*
X939800Y266700D02*
X952500Y279400D01*
X939800Y266700D02*
X903754Y266700D01*
X903754Y330200D02*
X952500Y330200D01*
X939800Y57150D02*
X939800Y44450D01*
X939800Y57150D02*
X946150Y63500D01*
X946150Y93196D01*
X914400Y93196D02*
X914400Y44450D01*
X889000Y44450D02*
X889000Y57150D01*
X882650Y63500D01*
X882650Y93196D01*
X850900Y57150D02*
X863600Y44450D01*
X850900Y57150D02*
X850900Y93196D01*
X787400Y57150D02*
X787400Y44450D01*
X806450Y76200D02*
X806450Y93196D01*
X806450Y76200D02*
X800100Y69850D01*
X787400Y57150D01*
D19*
X800100Y69850D03*
X800100Y139700D03*
D18*
X800100Y165100D01*
X749300Y215900D01*
X730250Y215900D02*
X698500Y247650D01*
X685800Y247650D02*
X673100Y234950D01*
X673100Y214884D01*
X730250Y215900D02*
X749300Y215900D01*
X698500Y247650D02*
X685800Y247650D01*
X774700Y93196D02*
X774700Y69850D01*
X762000Y57150D01*
X762000Y44450D01*
D19*
X774700Y69850D03*
X774700Y139700D03*
D18*
X666750Y196850D02*
X660400Y203200D01*
X660400Y214884D01*
X666750Y196850D02*
X742950Y196850D01*
X774700Y165100D01*
X774700Y139700D01*
X742950Y50800D02*
X736600Y44450D01*
X742950Y50800D02*
X742950Y69850D01*
X742950Y93196D01*
X742950Y69850D02*
X749300Y69850D01*
D19*
X749300Y69850D03*
X749300Y139700D03*
D18*
X647700Y190500D02*
X647700Y214884D01*
X647700Y190500D02*
X654050Y184150D01*
X730250Y184150D01*
X749300Y165100D01*
X749300Y139700D01*
X711200Y69850D02*
X711200Y44450D01*
X711200Y69850D02*
X711200Y93196D01*
X711200Y69850D02*
X723900Y69850D01*
D19*
X723900Y69850D03*
X723900Y139700D03*
D18*
X723900Y165100D02*
X717550Y171450D01*
X641350Y171450D01*
X635000Y177800D01*
X723900Y165100D02*
X723900Y139700D01*
X635000Y177800D02*
X635000Y214884D01*
X603250Y93196D02*
X603250Y44450D01*
X603250Y93196D02*
X620246Y93196D01*
X635000Y107950D01*
X635000Y153416D01*
X577850Y44450D02*
X575796Y44450D01*
X571500Y69850D02*
X571500Y93196D01*
X571500Y69850D02*
X571500Y48746D01*
X575796Y44450D01*
X647700Y88900D02*
X647700Y153416D01*
X647700Y88900D02*
X628650Y69850D01*
D19*
X628650Y69850D03*
X584200Y69850D03*
D18*
X571500Y69850D01*
X539750Y69850D02*
X539750Y93196D01*
X552450Y57150D02*
X552450Y44450D01*
X552450Y57150D02*
X539750Y69850D01*
X552450Y44450D02*
X552450Y31750D01*
X558800Y25400D01*
X654050Y25400D01*
X660400Y31750D01*
X660400Y153416D01*
X508000Y93196D02*
X508000Y63500D01*
X527050Y44450D01*
X527050Y25400D02*
X539750Y12700D01*
X660400Y12700D02*
X673100Y25400D01*
X527050Y25400D02*
X527050Y44450D01*
X539750Y12700D02*
X660400Y12700D01*
X673100Y25400D02*
X673100Y153416D01*
D19*
X476250Y69850D03*
D18*
X476250Y93196D01*
X463550Y57150D02*
X463550Y44450D01*
X463550Y57150D02*
X476250Y69850D01*
D19*
X476250Y139700D03*
D18*
X476250Y158750D01*
X381000Y254000D01*
X349250Y254000D02*
X349250Y221234D01*
X349250Y254000D02*
X381000Y254000D01*
D19*
X450850Y69850D03*
D18*
X336550Y208534D02*
X336550Y221234D01*
X406400Y203200D02*
X450850Y158750D01*
X450850Y139700D01*
D19*
X450850Y139700D03*
D18*
X444500Y93196D02*
X444500Y69850D01*
X450850Y69850D01*
X341884Y203200D02*
X336550Y208534D01*
X341884Y203200D02*
X406400Y203200D01*
X438150Y63500D02*
X438150Y44450D01*
X438150Y63500D02*
X444500Y69850D01*
X412750Y93196D02*
X412750Y44450D01*
X412750Y69850D01*
X425450Y69850D01*
D19*
X425450Y69850D03*
D18*
X323850Y196850D02*
X323850Y221234D01*
X323850Y196850D02*
X330200Y190500D01*
X393700Y190500D01*
X425450Y158750D01*
X425450Y139700D01*
D19*
X425450Y139700D03*
D18*
X381000Y93196D02*
X381000Y69850D01*
X393700Y69850D01*
X381000Y69850D02*
X381000Y50800D01*
X387350Y44450D01*
D19*
X393700Y69850D03*
X400050Y139700D03*
D18*
X317500Y177800D02*
X311150Y184150D01*
X387350Y177800D02*
X400050Y165100D01*
X400050Y139700D01*
X387350Y177800D02*
X317500Y177800D01*
X311150Y184150D02*
X311150Y221234D01*
X292100Y57150D02*
X279400Y44450D01*
X292100Y57150D02*
X292100Y93196D01*
X311150Y107950D02*
X311150Y159766D01*
X296396Y93196D02*
X292100Y93196D01*
X296396Y93196D02*
X311150Y107950D01*
X260350Y69850D02*
X260350Y50800D01*
X254000Y44450D01*
X260350Y69850D02*
X260350Y93196D01*
X304800Y69850D02*
X323850Y88900D01*
X323850Y159766D01*
D19*
X304800Y69850D03*
D18*
X266700Y69850D02*
X260350Y69850D01*
D19*
X266700Y69850D03*
D18*
X228600Y93196D02*
X228600Y44450D01*
X228600Y31750D01*
X234950Y25400D01*
X330200Y25400D01*
X336550Y31750D01*
X336550Y159766D01*
X203200Y44450D02*
X196850Y50800D01*
X196850Y93196D01*
X203200Y44450D02*
X203200Y25400D01*
X215900Y12700D01*
X336550Y12700D01*
X349250Y25400D01*
X349250Y159766D01*
X685800Y228600D02*
X692150Y234950D01*
X685800Y228600D02*
X685800Y214884D01*
D19*
X692150Y234950D03*
D18*
X699516Y215900D02*
X698500Y214884D01*
X699516Y215900D02*
X711200Y215900D01*
D19*
X711200Y215900D03*
D18*
X361950Y221234D02*
X361950Y241300D01*
D19*
X361950Y241300D03*
D18*
X101600Y458216D02*
X101600Y501650D01*
D19*
X101600Y501650D03*
X196850Y558800D03*
D18*
X216916Y558800D01*
D19*
X228600Y641350D03*
D18*
X228600Y624354D01*
D19*
X196850Y641350D03*
D18*
X196850Y624354D01*
D19*
X165100Y641350D03*
D18*
X165100Y624354D01*
D19*
X139700Y641350D03*
D18*
X133350Y635000D02*
X133350Y624354D01*
X133350Y635000D02*
X139700Y641350D01*
X228600Y594846D02*
X228600Y590550D01*
X139700Y520700D02*
X139700Y501650D01*
X114300Y476250D01*
X114300Y458216D01*
X215900Y577850D02*
X228600Y590550D01*
X215900Y577850D02*
X196850Y577850D01*
X139700Y520700D01*
X133350Y93196D02*
X133350Y63500D01*
X127000Y57150D01*
X127000Y44450D01*
X101600Y44450D02*
X101600Y93196D01*
X69850Y93196D02*
X69850Y63500D01*
X76200Y57150D02*
X76200Y44450D01*
X76200Y57150D02*
X69850Y63500D01*
X38100Y57150D02*
X38100Y93196D01*
X38100Y57150D02*
X50800Y44450D01*
X63500Y266700D02*
X50800Y279400D01*
X63500Y266700D02*
X105896Y266700D01*
X57150Y298450D02*
X50800Y304800D01*
X57150Y298450D02*
X105896Y298450D01*
X105896Y330200D02*
X50800Y330200D01*
X50800Y355600D02*
X57150Y361950D01*
X105896Y361950D01*
D19*
X387350Y222250D03*
D18*
X382016Y227584D01*
X374650Y227584D01*
X374650Y221234D01*
X196850Y594846D02*
X195812Y594846D01*
X127000Y526034D01*
X127000Y519684D01*
X114300Y519684D02*
X114300Y533400D01*
X165100Y584200D02*
X165100Y594846D01*
X165100Y584200D02*
X114300Y533400D01*
X101600Y539750D02*
X101600Y519684D01*
X101600Y539750D02*
X133350Y571500D01*
X133350Y594846D01*
D19*
X88900Y546100D03*
D18*
X88900Y519684D01*
D19*
X76200Y552450D03*
D18*
X76200Y519684D01*
D19*
X63500Y552450D03*
D18*
X63500Y519684D01*
D19*
X44450Y552450D03*
D18*
X50800Y546100D02*
X50800Y519684D01*
X50800Y546100D02*
X44450Y552450D01*
X260350Y546100D02*
X278384Y546100D01*
D19*
X260350Y546100D03*
D18*
X311150Y553466D02*
X311150Y577850D01*
X291084Y533400D02*
X278384Y533400D01*
X291084Y533400D02*
X311150Y553466D01*
D19*
X311150Y577850D03*
D18*
X342900Y577850D02*
X342900Y566166D01*
X297434Y520700D02*
X278384Y520700D01*
X297434Y520700D02*
X342900Y566166D01*
D19*
X342900Y577850D03*
D18*
X374650Y577850D02*
X304800Y508000D01*
X278384Y508000D01*
D19*
X374650Y577850D03*
D18*
X311150Y495300D02*
X278384Y495300D01*
X311150Y495300D02*
X387350Y571500D01*
X387350Y594846D01*
X419100Y594846D02*
X419100Y582146D01*
X319554Y482600D02*
X278384Y482600D01*
X319554Y482600D02*
X419100Y582146D01*
X450850Y588496D02*
X450850Y594846D01*
X450850Y588496D02*
X332254Y469900D01*
X278384Y469900D01*
X480546Y594846D02*
X482600Y594846D01*
X480546Y594846D02*
X342900Y457200D01*
X260350Y457200D01*
X248825Y482600D02*
X216916Y482600D01*
X248825Y482600D02*
X256540Y474885D01*
X256540Y461010D02*
X260350Y457200D01*
X256540Y461010D02*
X256540Y474885D01*
X688340Y558800D02*
X688340Y582146D01*
X688340Y558800D02*
X693166Y558800D01*
X688340Y582146D02*
X701040Y594846D01*
X668804Y594846D02*
X668020Y594846D01*
X679450Y546100D02*
X693166Y546100D01*
X679450Y546100D02*
X666750Y558800D01*
X666750Y593576D01*
X668020Y594846D01*
X637054Y594846D02*
X635000Y594846D01*
X673100Y533400D02*
X693166Y533400D01*
X673100Y533400D02*
X635000Y571500D01*
X635000Y592792D01*
X637054Y594846D01*
X666750Y520700D02*
X693166Y520700D01*
X666750Y520700D02*
X628650Y558800D01*
D19*
X628650Y558800D03*
D18*
X660400Y508000D02*
X693166Y508000D01*
X660400Y508000D02*
X596900Y571500D01*
X596900Y577850D01*
D19*
X596900Y577850D03*
D18*
X654050Y495300D02*
X693166Y495300D01*
X654050Y495300D02*
X571500Y577850D01*
D19*
X571500Y577850D03*
D18*
X647700Y482600D02*
X693166Y482600D01*
X647700Y482600D02*
X552450Y577850D01*
X533400Y577850D01*
D19*
X533400Y577850D03*
D18*
X857250Y558800D02*
X857250Y538734D01*
D19*
X857250Y558800D03*
D18*
X869950Y558800D02*
X869950Y538734D01*
D19*
X869950Y558800D03*
D18*
X882650Y558800D02*
X882650Y538734D01*
D19*
X882650Y558800D03*
D18*
X895350Y571500D02*
X895350Y538734D01*
X895350Y571500D02*
X882650Y584200D01*
X882650Y594846D01*
X908050Y571500D02*
X908050Y538734D01*
X908050Y571500D02*
X914400Y577850D01*
X914400Y594846D01*
X920750Y565150D02*
X920750Y538734D01*
X946150Y590550D02*
X946150Y594846D01*
X946150Y590550D02*
X920750Y565150D01*
X908050Y495300D02*
X908050Y477266D01*
X908050Y495300D02*
X933450Y520700D01*
X933450Y558800D02*
X952500Y577850D01*
X965200Y577850D01*
X977900Y590550D01*
X977900Y594846D01*
X933450Y558800D02*
X933450Y520700D01*
X579904Y344402D02*
X571754Y352552D01*
X579904Y344402D02*
X579904Y323850D01*
X579904Y313204D01*
X539750Y273050D01*
X550396Y344402D02*
X558546Y352552D01*
X550396Y344402D02*
X550396Y323850D01*
X463296Y330454D02*
X463296Y352552D01*
X469900Y323850D02*
X474196Y323850D01*
X469900Y323850D02*
X463296Y330454D01*
X412496Y348996D02*
X412496Y352552D01*
X404346Y340846D02*
X404346Y323850D01*
X404346Y340846D02*
X412496Y348996D01*
X590550Y273050D02*
X609600Y292100D01*
X609600Y323850D01*
D19*
X609600Y323850D03*
D18*
X565150Y323850D02*
X550396Y323850D01*
X488950Y323850D02*
X474196Y323850D01*
D19*
X488950Y323850D03*
D18*
X419100Y323850D02*
X404346Y323850D01*
D19*
X419100Y323850D03*
X565150Y323850D03*
X584200Y444500D03*
D18*
X575056Y444500D02*
X571754Y441198D01*
X575056Y444500D02*
X584200Y444500D01*
D19*
X501650Y457200D03*
D18*
X501650Y433854D01*
X499596Y431800D01*
D19*
X450850Y463550D03*
D18*
X450850Y459254D01*
X438150Y446554D01*
X436096Y450850D02*
X438150Y452904D01*
X466852Y406400D02*
X466598Y406146D01*
X466852Y406400D02*
X488950Y406400D01*
X501650Y419100D01*
X501650Y433854D01*
X404600Y431546D02*
X377698Y431546D01*
X404600Y431546D02*
X406400Y429746D01*
X429746Y429746D01*
X438150Y438150D02*
X438150Y446554D01*
X438150Y438150D02*
X429746Y429746D01*
X503704Y325352D02*
X503704Y323850D01*
X503704Y325352D02*
X476504Y352552D01*
X503704Y323850D02*
X503704Y296396D01*
X514350Y285750D01*
X514350Y273050D01*
X425704Y348996D02*
X425704Y352552D01*
X433854Y340846D02*
X433854Y323850D01*
X433854Y340846D02*
X425704Y348996D01*
X433854Y323850D02*
X433854Y315446D01*
X457200Y292100D02*
X482600Y292100D01*
X488950Y285750D01*
X488950Y273050D01*
X457200Y292100D02*
X433854Y315446D01*
X463550Y488950D02*
X463550Y501650D01*
X463550Y488950D02*
X457200Y482600D01*
X412750Y482600D02*
X389404Y459254D01*
X377698Y447548D01*
X377698Y444754D01*
X412750Y482600D02*
X457200Y482600D01*
X406400Y459254D02*
X389404Y459254D01*
X465604Y450850D02*
X488950Y474196D01*
X488950Y501650D01*
X465604Y420348D02*
X466598Y419354D01*
X465604Y420348D02*
X465604Y450850D01*
X514350Y476250D02*
X514350Y501650D01*
X514350Y476250D02*
X527050Y463550D01*
X527050Y457200D02*
X558800Y457200D01*
X558800Y441452D01*
X558546Y441198D01*
X529104Y431800D02*
X527050Y433854D01*
X527050Y463550D01*
M02*
