G04 EAGLE Gerber RS-274X export*
G75*
%MOMM*%
%FSLAX34Y34*%
%LPD*%
%IN*%
%IPPOS*%
%AMOC8*
5,1,8,0,0,1.08239X$1,22.5*%
G01*
%ADD10C,0.254000*%


D10*
X0Y0D02*
X1000000Y0D01*
X1000000Y800000D01*
X0Y800000D01*
X0Y0D01*
X512840Y769084D02*
X512764Y768016D01*
X512611Y766955D01*
X512383Y765908D01*
X512081Y764880D01*
X511707Y763876D01*
X511262Y762901D01*
X510748Y761961D01*
X510169Y761060D01*
X509527Y760202D01*
X508825Y759392D01*
X508068Y758635D01*
X507258Y757933D01*
X506400Y757291D01*
X505499Y756712D01*
X504559Y756198D01*
X503584Y755753D01*
X502580Y755379D01*
X501552Y755077D01*
X500505Y754849D01*
X499444Y754696D01*
X498376Y754620D01*
X497304Y754620D01*
X496236Y754696D01*
X495175Y754849D01*
X494128Y755077D01*
X493100Y755379D01*
X492096Y755753D01*
X491121Y756198D01*
X490181Y756712D01*
X489280Y757291D01*
X488422Y757933D01*
X487612Y758635D01*
X486855Y759392D01*
X486153Y760202D01*
X485511Y761060D01*
X484932Y761961D01*
X484418Y762901D01*
X483973Y763876D01*
X483599Y764880D01*
X483297Y765908D01*
X483069Y766955D01*
X482916Y768016D01*
X482840Y769084D01*
X482840Y770156D01*
X482916Y771224D01*
X483069Y772285D01*
X483297Y773332D01*
X483599Y774360D01*
X483973Y775364D01*
X484418Y776339D01*
X484932Y777279D01*
X485511Y778180D01*
X486153Y779038D01*
X486855Y779848D01*
X487612Y780605D01*
X488422Y781307D01*
X489280Y781949D01*
X490181Y782528D01*
X491121Y783042D01*
X492096Y783487D01*
X493100Y783861D01*
X494128Y784163D01*
X495175Y784391D01*
X496236Y784544D01*
X497304Y784620D01*
X498376Y784620D01*
X499444Y784544D01*
X500505Y784391D01*
X501552Y784163D01*
X502580Y783861D01*
X503584Y783487D01*
X504559Y783042D01*
X505499Y782528D01*
X506400Y781949D01*
X507258Y781307D01*
X508068Y780605D01*
X508825Y779848D01*
X509527Y779038D01*
X510169Y778180D01*
X510748Y777279D01*
X511262Y776339D01*
X511707Y775364D01*
X512081Y774360D01*
X512383Y773332D01*
X512611Y772285D01*
X512764Y771224D01*
X512840Y770156D01*
X512840Y769084D01*
X53100Y170914D02*
X53024Y169846D01*
X52871Y168785D01*
X52643Y167738D01*
X52341Y166710D01*
X51967Y165706D01*
X51522Y164731D01*
X51008Y163791D01*
X50429Y162890D01*
X49787Y162032D01*
X49085Y161222D01*
X48328Y160465D01*
X47518Y159763D01*
X46660Y159121D01*
X45759Y158542D01*
X44819Y158028D01*
X43844Y157583D01*
X42840Y157209D01*
X41812Y156907D01*
X40765Y156679D01*
X39704Y156526D01*
X38636Y156450D01*
X37564Y156450D01*
X36496Y156526D01*
X35435Y156679D01*
X34388Y156907D01*
X33360Y157209D01*
X32356Y157583D01*
X31381Y158028D01*
X30441Y158542D01*
X29540Y159121D01*
X28682Y159763D01*
X27872Y160465D01*
X27115Y161222D01*
X26413Y162032D01*
X25771Y162890D01*
X25192Y163791D01*
X24678Y164731D01*
X24233Y165706D01*
X23859Y166710D01*
X23557Y167738D01*
X23329Y168785D01*
X23176Y169846D01*
X23100Y170914D01*
X23100Y171986D01*
X23176Y173054D01*
X23329Y174115D01*
X23557Y175162D01*
X23859Y176190D01*
X24233Y177194D01*
X24678Y178169D01*
X25192Y179109D01*
X25771Y180010D01*
X26413Y180868D01*
X27115Y181678D01*
X27872Y182435D01*
X28682Y183137D01*
X29540Y183779D01*
X30441Y184358D01*
X31381Y184872D01*
X32356Y185317D01*
X33360Y185691D01*
X34388Y185993D01*
X35435Y186221D01*
X36496Y186374D01*
X37564Y186450D01*
X38636Y186450D01*
X39704Y186374D01*
X40765Y186221D01*
X41812Y185993D01*
X42840Y185691D01*
X43844Y185317D01*
X44819Y184872D01*
X45759Y184358D01*
X46660Y183779D01*
X47518Y183137D01*
X48328Y182435D01*
X49085Y181678D01*
X49787Y180868D01*
X50429Y180010D01*
X51008Y179109D01*
X51522Y178169D01*
X51967Y177194D01*
X52341Y176190D01*
X52643Y175162D01*
X52871Y174115D01*
X53024Y173054D01*
X53100Y171986D01*
X53100Y170914D01*
X986550Y532864D02*
X986474Y531796D01*
X986321Y530735D01*
X986093Y529688D01*
X985791Y528660D01*
X985417Y527656D01*
X984972Y526681D01*
X984458Y525741D01*
X983879Y524840D01*
X983237Y523982D01*
X982535Y523172D01*
X981778Y522415D01*
X980968Y521713D01*
X980110Y521071D01*
X979209Y520492D01*
X978269Y519978D01*
X977294Y519533D01*
X976290Y519159D01*
X975262Y518857D01*
X974215Y518629D01*
X973154Y518476D01*
X972086Y518400D01*
X971014Y518400D01*
X969946Y518476D01*
X968885Y518629D01*
X967838Y518857D01*
X966810Y519159D01*
X965806Y519533D01*
X964831Y519978D01*
X963891Y520492D01*
X962990Y521071D01*
X962132Y521713D01*
X961322Y522415D01*
X960565Y523172D01*
X959863Y523982D01*
X959221Y524840D01*
X958642Y525741D01*
X958128Y526681D01*
X957683Y527656D01*
X957309Y528660D01*
X957007Y529688D01*
X956779Y530735D01*
X956626Y531796D01*
X956550Y532864D01*
X956550Y533936D01*
X956626Y535004D01*
X956779Y536065D01*
X957007Y537112D01*
X957309Y538140D01*
X957683Y539144D01*
X958128Y540119D01*
X958642Y541059D01*
X959221Y541960D01*
X959863Y542818D01*
X960565Y543628D01*
X961322Y544385D01*
X962132Y545087D01*
X962990Y545729D01*
X963891Y546308D01*
X964831Y546822D01*
X965806Y547267D01*
X966810Y547641D01*
X967838Y547943D01*
X968885Y548171D01*
X969946Y548324D01*
X971014Y548400D01*
X972086Y548400D01*
X973154Y548324D01*
X974215Y548171D01*
X975262Y547943D01*
X976290Y547641D01*
X977294Y547267D01*
X978269Y546822D01*
X979209Y546308D01*
X980110Y545729D01*
X980968Y545087D01*
X981778Y544385D01*
X982535Y543628D01*
X983237Y542818D01*
X983879Y541960D01*
X984458Y541059D01*
X984972Y540119D01*
X985417Y539144D01*
X985791Y538140D01*
X986093Y537112D01*
X986321Y536065D01*
X986474Y535004D01*
X986550Y533936D01*
X986550Y532864D01*
X992900Y202664D02*
X992824Y201596D01*
X992671Y200535D01*
X992443Y199488D01*
X992141Y198460D01*
X991767Y197456D01*
X991322Y196481D01*
X990808Y195541D01*
X990229Y194640D01*
X989587Y193782D01*
X988885Y192972D01*
X988128Y192215D01*
X987318Y191513D01*
X986460Y190871D01*
X985559Y190292D01*
X984619Y189778D01*
X983644Y189333D01*
X982640Y188959D01*
X981612Y188657D01*
X980565Y188429D01*
X979504Y188276D01*
X978436Y188200D01*
X977364Y188200D01*
X976296Y188276D01*
X975235Y188429D01*
X974188Y188657D01*
X973160Y188959D01*
X972156Y189333D01*
X971181Y189778D01*
X970241Y190292D01*
X969340Y190871D01*
X968482Y191513D01*
X967672Y192215D01*
X966915Y192972D01*
X966213Y193782D01*
X965571Y194640D01*
X964992Y195541D01*
X964478Y196481D01*
X964033Y197456D01*
X963659Y198460D01*
X963357Y199488D01*
X963129Y200535D01*
X962976Y201596D01*
X962900Y202664D01*
X962900Y203736D01*
X962976Y204804D01*
X963129Y205865D01*
X963357Y206912D01*
X963659Y207940D01*
X964033Y208944D01*
X964478Y209919D01*
X964992Y210859D01*
X965571Y211760D01*
X966213Y212618D01*
X966915Y213428D01*
X967672Y214185D01*
X968482Y214887D01*
X969340Y215529D01*
X970241Y216108D01*
X971181Y216622D01*
X972156Y217067D01*
X973160Y217441D01*
X974188Y217743D01*
X975235Y217971D01*
X976296Y218124D01*
X977364Y218200D01*
X978436Y218200D01*
X979504Y218124D01*
X980565Y217971D01*
X981612Y217743D01*
X982640Y217441D01*
X983644Y217067D01*
X984619Y216622D01*
X985559Y216108D01*
X986460Y215529D01*
X987318Y214887D01*
X988128Y214185D01*
X988885Y213428D01*
X989587Y212618D01*
X990229Y211760D01*
X990808Y210859D01*
X991322Y209919D01*
X991767Y208944D01*
X992141Y207940D01*
X992443Y206912D01*
X992671Y205865D01*
X992824Y204804D01*
X992900Y203736D01*
X992900Y202664D01*
M02*
