G04 EAGLE Gerber RS-274X export*
G75*
%MOMM*%
%FSLAX34Y34*%
%LPD*%
%INSoldermask Top*%
%IPPOS*%
%AMOC8*
5,1,8,0,0,1.08239X$1,22.5*%
G01*
%ADD10C,3.203200*%
%ADD11R,0.863600X2.235200*%
%ADD12R,2.235200X0.863600*%
%ADD13R,1.367800X2.018500*%
%ADD14R,2.018500X1.367800*%
%ADD15C,2.003200*%
%ADD16C,1.711200*%
%ADD17R,0.660400X1.371600*%
%ADD18R,1.371600X0.660400*%
%ADD19C,0.959600*%


D10*
X497840Y769620D03*
X38100Y171450D03*
X971550Y533400D03*
X977900Y203200D03*
D11*
X609600Y153416D03*
X609600Y214884D03*
X622300Y153416D03*
X635000Y153416D03*
X622300Y214884D03*
X635000Y214884D03*
X647700Y153416D03*
X647700Y214884D03*
X660400Y153416D03*
X660400Y214884D03*
X673100Y153416D03*
X685800Y153416D03*
X673100Y214884D03*
X685800Y214884D03*
X698500Y153416D03*
X698500Y214884D03*
X285750Y159766D03*
X285750Y221234D03*
X298450Y159766D03*
X311150Y159766D03*
X298450Y221234D03*
X311150Y221234D03*
X323850Y159766D03*
X323850Y221234D03*
X336550Y159766D03*
X336550Y221234D03*
X349250Y159766D03*
X361950Y159766D03*
X349250Y221234D03*
X361950Y221234D03*
X374650Y159766D03*
X374650Y221234D03*
X920750Y538734D03*
X920750Y477266D03*
X908050Y538734D03*
X895350Y538734D03*
X908050Y477266D03*
X895350Y477266D03*
X882650Y538734D03*
X882650Y477266D03*
X869950Y538734D03*
X869950Y477266D03*
X857250Y538734D03*
X844550Y538734D03*
X857250Y477266D03*
X844550Y477266D03*
X831850Y538734D03*
X831850Y477266D03*
D12*
X693166Y558800D03*
X754634Y558800D03*
X693166Y546100D03*
X693166Y533400D03*
X754634Y546100D03*
X754634Y533400D03*
X693166Y520700D03*
X754634Y520700D03*
X693166Y508000D03*
X754634Y508000D03*
X693166Y495300D03*
X693166Y482600D03*
X754634Y495300D03*
X754634Y482600D03*
X693166Y469900D03*
X754634Y469900D03*
X278384Y469900D03*
X216916Y469900D03*
X278384Y482600D03*
X278384Y495300D03*
X216916Y482600D03*
X216916Y495300D03*
X278384Y508000D03*
X216916Y508000D03*
X278384Y520700D03*
X216916Y520700D03*
X278384Y533400D03*
X278384Y546100D03*
X216916Y533400D03*
X216916Y546100D03*
X278384Y558800D03*
X216916Y558800D03*
D13*
X903754Y361950D03*
X874246Y361950D03*
X903754Y330200D03*
X874246Y330200D03*
X903754Y298450D03*
X874246Y298450D03*
X903754Y266700D03*
X874246Y266700D03*
D14*
X946150Y93196D03*
X946150Y122704D03*
X914400Y93196D03*
X914400Y122704D03*
X882650Y93196D03*
X882650Y122704D03*
X850900Y93196D03*
X850900Y122704D03*
X806450Y93196D03*
X806450Y122704D03*
X774700Y93196D03*
X774700Y122704D03*
X742950Y93196D03*
X742950Y122704D03*
X711200Y93196D03*
X711200Y122704D03*
X603250Y93196D03*
X603250Y122704D03*
X571500Y93196D03*
X571500Y122704D03*
X539750Y93196D03*
X539750Y122704D03*
X508000Y93196D03*
X508000Y122704D03*
X476250Y93196D03*
X476250Y122704D03*
X444500Y93196D03*
X444500Y122704D03*
X412750Y93196D03*
X412750Y122704D03*
X381000Y93196D03*
X381000Y122704D03*
X292100Y93196D03*
X292100Y122704D03*
X260350Y93196D03*
X260350Y122704D03*
X228600Y93196D03*
X228600Y122704D03*
X196850Y93196D03*
X196850Y122704D03*
X977900Y594846D03*
X977900Y624354D03*
X946150Y594846D03*
X946150Y624354D03*
X914400Y594846D03*
X914400Y624354D03*
X882650Y594846D03*
X882650Y624354D03*
X734060Y594846D03*
X734060Y624354D03*
X701040Y594846D03*
X701040Y624354D03*
X668020Y594846D03*
X668020Y624354D03*
X635000Y594846D03*
X635000Y624354D03*
X482600Y594846D03*
X482600Y624354D03*
X450850Y594846D03*
X450850Y624354D03*
X419100Y594846D03*
X419100Y624354D03*
X387350Y594846D03*
X387350Y624354D03*
D15*
X977900Y762000D03*
X901700Y762000D03*
X927100Y762000D03*
X952500Y762000D03*
X857250Y762000D03*
X781050Y762000D03*
X806450Y762000D03*
X831850Y762000D03*
X736600Y762000D03*
X660400Y762000D03*
X685800Y762000D03*
X711200Y762000D03*
X615950Y762000D03*
X539750Y762000D03*
X565150Y762000D03*
X590550Y762000D03*
X457200Y762000D03*
X381000Y762000D03*
X406400Y762000D03*
X431800Y762000D03*
X336550Y762000D03*
X260350Y762000D03*
X285750Y762000D03*
X311150Y762000D03*
X952500Y355600D03*
X952500Y279400D03*
X952500Y304800D03*
X952500Y330200D03*
X939800Y44450D03*
X863600Y44450D03*
X889000Y44450D03*
X914400Y44450D03*
X787400Y44450D03*
X711200Y44450D03*
X736600Y44450D03*
X762000Y44450D03*
X603250Y44450D03*
X527050Y44450D03*
X552450Y44450D03*
X577850Y44450D03*
X463550Y44450D03*
X387350Y44450D03*
X412750Y44450D03*
X438150Y44450D03*
X279400Y44450D03*
X203200Y44450D03*
X228600Y44450D03*
X254000Y44450D03*
D16*
X565150Y273050D03*
X539750Y273050D03*
X514350Y273050D03*
X488950Y273050D03*
X463550Y273050D03*
X438150Y273050D03*
X412750Y273050D03*
X565150Y501650D03*
X539750Y501650D03*
X514350Y501650D03*
X488950Y501650D03*
X463550Y501650D03*
X438150Y501650D03*
X412750Y501650D03*
X590550Y273050D03*
X590550Y501650D03*
D11*
X127000Y519684D03*
X127000Y458216D03*
X114300Y519684D03*
X101600Y519684D03*
X114300Y458216D03*
X101600Y458216D03*
X88900Y519684D03*
X88900Y458216D03*
X76200Y519684D03*
X76200Y458216D03*
X63500Y519684D03*
X50800Y519684D03*
X63500Y458216D03*
X50800Y458216D03*
X38100Y519684D03*
X38100Y458216D03*
D14*
X228600Y594846D03*
X228600Y624354D03*
X196850Y594846D03*
X196850Y624354D03*
X165100Y594846D03*
X165100Y624354D03*
X133350Y594846D03*
X133350Y624354D03*
D15*
X215900Y762000D03*
X139700Y762000D03*
X165100Y762000D03*
X190500Y762000D03*
X96520Y762000D03*
X20320Y762000D03*
X45720Y762000D03*
X71120Y762000D03*
X127000Y44450D03*
X50800Y44450D03*
X76200Y44450D03*
X101600Y44450D03*
X50800Y279400D03*
X50800Y355600D03*
X50800Y330200D03*
X50800Y304800D03*
D14*
X133350Y93196D03*
X133350Y122704D03*
X101600Y93196D03*
X101600Y122704D03*
X69850Y93196D03*
X69850Y122704D03*
X38100Y93196D03*
X38100Y122704D03*
D13*
X105896Y266700D03*
X135404Y266700D03*
X105896Y298450D03*
X135404Y298450D03*
X105896Y330200D03*
X135404Y330200D03*
X105896Y361950D03*
X135404Y361950D03*
X601196Y361950D03*
X630704Y361950D03*
X550396Y323850D03*
X579904Y323850D03*
D17*
X558546Y352552D03*
X571754Y352552D03*
X565150Y371348D03*
X463296Y352552D03*
X476504Y352552D03*
X469900Y371348D03*
X412496Y352552D03*
X425704Y352552D03*
X419100Y371348D03*
D13*
X505946Y361950D03*
X535454Y361950D03*
X503704Y323850D03*
X474196Y323850D03*
X389404Y361950D03*
X359896Y361950D03*
X433854Y323850D03*
X404346Y323850D03*
D17*
X571754Y441198D03*
X558546Y441198D03*
X565150Y422402D03*
D18*
X466598Y406146D03*
X466598Y419354D03*
X447802Y412750D03*
X377698Y431546D03*
X377698Y444754D03*
X358902Y438150D03*
D13*
X529104Y431800D03*
X499596Y431800D03*
D14*
X609600Y427504D03*
X609600Y397996D03*
D13*
X465604Y450850D03*
X436096Y450850D03*
X325904Y387350D03*
X296396Y387350D03*
D14*
X406400Y459254D03*
X406400Y429746D03*
D13*
X325904Y431800D03*
X296396Y431800D03*
D19*
X292100Y107950D03*
X361950Y120650D03*
X622300Y120650D03*
X685800Y120650D03*
X825500Y641350D03*
X717550Y577850D03*
X247650Y565150D03*
X44450Y685800D03*
X774700Y520700D03*
X831850Y520700D03*
X508000Y558800D03*
X908050Y241300D03*
X158750Y266700D03*
X95250Y146050D03*
X831850Y139700D03*
X273050Y190500D03*
X717550Y546100D03*
X609600Y196850D03*
X285750Y203200D03*
X755650Y723900D03*
X247650Y723900D03*
X508000Y723900D03*
X19050Y698500D03*
X920750Y444500D03*
X844550Y444500D03*
X952500Y228600D03*
X82550Y184150D03*
X895350Y457200D03*
X609600Y457200D03*
X234950Y495300D03*
X774700Y469900D03*
X838200Y508000D03*
X774700Y508000D03*
X76200Y476250D03*
X196850Y520700D03*
X76200Y425450D03*
X342900Y400050D03*
X774700Y495300D03*
X857250Y495300D03*
X76200Y488950D03*
X196850Y533400D03*
X63500Y438150D03*
X342900Y444500D03*
X844550Y558800D03*
X984250Y641350D03*
X946150Y641350D03*
X920750Y641350D03*
X895350Y641350D03*
X736600Y641350D03*
X704850Y641350D03*
X673100Y641350D03*
X647700Y641350D03*
X482600Y641350D03*
X450850Y641350D03*
X419100Y641350D03*
X393700Y641350D03*
X285750Y177800D03*
X609600Y171450D03*
X82550Y209550D03*
X527050Y184150D03*
X298450Y139700D03*
X622300Y133350D03*
X95250Y196850D03*
X508000Y146050D03*
X615950Y361950D03*
X800100Y69850D03*
X800100Y139700D03*
X774700Y69850D03*
X774700Y139700D03*
X749300Y69850D03*
X749300Y139700D03*
X723900Y69850D03*
X723900Y139700D03*
X628650Y69850D03*
X584200Y69850D03*
X476250Y69850D03*
X476250Y139700D03*
X450850Y69850D03*
X450850Y139700D03*
X425450Y69850D03*
X425450Y139700D03*
X393700Y69850D03*
X400050Y139700D03*
X304800Y69850D03*
X266700Y69850D03*
X692150Y234950D03*
X711200Y215900D03*
X361950Y241300D03*
X101600Y501650D03*
X196850Y558800D03*
X228600Y641350D03*
X196850Y641350D03*
X165100Y641350D03*
X139700Y641350D03*
X387350Y222250D03*
X88900Y546100D03*
X76200Y552450D03*
X63500Y552450D03*
X44450Y552450D03*
X260350Y546100D03*
X311150Y577850D03*
X342900Y577850D03*
X374650Y577850D03*
X628650Y558800D03*
X596900Y577850D03*
X571500Y577850D03*
X533400Y577850D03*
X857250Y558800D03*
X869950Y558800D03*
X882650Y558800D03*
X609600Y323850D03*
X488950Y323850D03*
X419100Y323850D03*
X565150Y323850D03*
X584200Y444500D03*
X501650Y457200D03*
X450850Y463550D03*
M02*
