G04 EAGLE Gerber RS-274X export*
G75*
%MOMM*%
%FSLAX34Y34*%
%LPD*%
%INSoldermask Bottom*%
%IPPOS*%
%AMOC8*
5,1,8,0,0,1.08239X$1,22.5*%
G01*
%ADD10C,3.203200*%
%ADD11R,0.863600X2.235200*%
%ADD12R,2.018500X1.367800*%
%ADD13C,2.003200*%
%ADD14C,1.711200*%
%ADD15C,0.959600*%


D10*
X497840Y769620D03*
X38100Y171450D03*
X971550Y533400D03*
X977900Y203200D03*
D11*
X920750Y159766D03*
X920750Y221234D03*
X908050Y159766D03*
X895350Y159766D03*
X908050Y221234D03*
X895350Y221234D03*
X882650Y159766D03*
X882650Y221234D03*
X869950Y159766D03*
X869950Y221234D03*
X857250Y159766D03*
X844550Y159766D03*
X857250Y221234D03*
X844550Y221234D03*
X831850Y159766D03*
X831850Y221234D03*
D12*
X876300Y594846D03*
X876300Y624354D03*
X844550Y594846D03*
X844550Y624354D03*
X812800Y594846D03*
X812800Y624354D03*
X781050Y594846D03*
X781050Y624354D03*
X628650Y594846D03*
X628650Y624354D03*
X596900Y594846D03*
X596900Y624354D03*
X565150Y594846D03*
X565150Y624354D03*
X533400Y594846D03*
X533400Y624354D03*
X374650Y594846D03*
X374650Y624354D03*
X342900Y594846D03*
X342900Y624354D03*
X311150Y594846D03*
X311150Y624354D03*
D13*
X977900Y762000D03*
X901700Y762000D03*
X927100Y762000D03*
X952500Y762000D03*
X857250Y762000D03*
X781050Y762000D03*
X806450Y762000D03*
X831850Y762000D03*
X736600Y762000D03*
X660400Y762000D03*
X685800Y762000D03*
X711200Y762000D03*
X615950Y762000D03*
X539750Y762000D03*
X565150Y762000D03*
X590550Y762000D03*
X457200Y762000D03*
X381000Y762000D03*
X406400Y762000D03*
X431800Y762000D03*
X336550Y762000D03*
X260350Y762000D03*
X285750Y762000D03*
X311150Y762000D03*
X952500Y355600D03*
X952500Y279400D03*
X952500Y304800D03*
X952500Y330200D03*
X939800Y44450D03*
X863600Y44450D03*
X889000Y44450D03*
X914400Y44450D03*
X787400Y44450D03*
X711200Y44450D03*
X736600Y44450D03*
X762000Y44450D03*
X603250Y44450D03*
X527050Y44450D03*
X552450Y44450D03*
X577850Y44450D03*
X463550Y44450D03*
X387350Y44450D03*
X412750Y44450D03*
X438150Y44450D03*
X279400Y44450D03*
X203200Y44450D03*
X228600Y44450D03*
X254000Y44450D03*
D12*
X279400Y594846D03*
X279400Y624354D03*
D14*
X565150Y273050D03*
X539750Y273050D03*
X514350Y273050D03*
X488950Y273050D03*
X463550Y273050D03*
X438150Y273050D03*
X412750Y273050D03*
X565150Y501650D03*
X539750Y501650D03*
X514350Y501650D03*
X488950Y501650D03*
X463550Y501650D03*
X438150Y501650D03*
X412750Y501650D03*
X590550Y273050D03*
X590550Y501650D03*
D11*
X984250Y661416D03*
X984250Y722884D03*
X971550Y661416D03*
X958850Y661416D03*
X971550Y722884D03*
X958850Y722884D03*
X946150Y661416D03*
X946150Y722884D03*
X933450Y661416D03*
X933450Y722884D03*
X920750Y661416D03*
X908050Y661416D03*
X920750Y722884D03*
X908050Y722884D03*
X895350Y661416D03*
X895350Y722884D03*
X863600Y661416D03*
X863600Y722884D03*
X850900Y661416D03*
X838200Y661416D03*
X850900Y722884D03*
X838200Y722884D03*
X825500Y661416D03*
X825500Y722884D03*
X812800Y661416D03*
X812800Y722884D03*
X800100Y661416D03*
X787400Y661416D03*
X800100Y722884D03*
X787400Y722884D03*
X774700Y661416D03*
X774700Y722884D03*
X736600Y661416D03*
X736600Y722884D03*
X723900Y661416D03*
X711200Y661416D03*
X723900Y722884D03*
X711200Y722884D03*
X698500Y661416D03*
X698500Y722884D03*
X685800Y661416D03*
X685800Y722884D03*
X673100Y661416D03*
X660400Y661416D03*
X673100Y722884D03*
X660400Y722884D03*
X647700Y661416D03*
X647700Y722884D03*
X615950Y661416D03*
X615950Y722884D03*
X603250Y661416D03*
X590550Y661416D03*
X603250Y722884D03*
X590550Y722884D03*
X577850Y661416D03*
X577850Y722884D03*
X565150Y661416D03*
X565150Y722884D03*
X552450Y661416D03*
X539750Y661416D03*
X552450Y722884D03*
X539750Y722884D03*
X527050Y661416D03*
X527050Y722884D03*
X482600Y661416D03*
X482600Y722884D03*
X469900Y661416D03*
X457200Y661416D03*
X469900Y722884D03*
X457200Y722884D03*
X444500Y661416D03*
X444500Y722884D03*
X431800Y661416D03*
X431800Y722884D03*
X419100Y661416D03*
X406400Y661416D03*
X419100Y722884D03*
X406400Y722884D03*
X393700Y661416D03*
X393700Y722884D03*
X361950Y661416D03*
X361950Y722884D03*
X349250Y661416D03*
X336550Y661416D03*
X349250Y722884D03*
X336550Y722884D03*
X323850Y661416D03*
X323850Y722884D03*
X311150Y661416D03*
X311150Y722884D03*
X298450Y661416D03*
X285750Y661416D03*
X298450Y722884D03*
X285750Y722884D03*
X273050Y661416D03*
X273050Y722884D03*
X228600Y661416D03*
X228600Y722884D03*
X215900Y661416D03*
X203200Y661416D03*
X215900Y722884D03*
X203200Y722884D03*
X190500Y661416D03*
X190500Y722884D03*
X177800Y661416D03*
X177800Y722884D03*
X165100Y661416D03*
X152400Y661416D03*
X165100Y722884D03*
X152400Y722884D03*
X139700Y661416D03*
X139700Y722884D03*
X107950Y661416D03*
X107950Y722884D03*
X95250Y661416D03*
X82550Y661416D03*
X95250Y722884D03*
X82550Y722884D03*
X69850Y661416D03*
X69850Y722884D03*
X57150Y661416D03*
X57150Y722884D03*
X44450Y661416D03*
X31750Y661416D03*
X44450Y722884D03*
X31750Y722884D03*
X19050Y661416D03*
X19050Y722884D03*
D12*
X120650Y594846D03*
X120650Y624354D03*
X88900Y594846D03*
X88900Y624354D03*
X57150Y594846D03*
X57150Y624354D03*
X25400Y594846D03*
X25400Y624354D03*
D13*
X215900Y762000D03*
X139700Y762000D03*
X165100Y762000D03*
X190500Y762000D03*
X96520Y762000D03*
X20320Y762000D03*
X45720Y762000D03*
X71120Y762000D03*
X127000Y44450D03*
X50800Y44450D03*
X76200Y44450D03*
X101600Y44450D03*
X50800Y279400D03*
X50800Y355600D03*
X50800Y330200D03*
X50800Y304800D03*
D11*
X82550Y227584D03*
X82550Y166116D03*
X95250Y227584D03*
X107950Y227584D03*
X95250Y166116D03*
X107950Y166116D03*
X120650Y227584D03*
X120650Y166116D03*
X133350Y227584D03*
X133350Y166116D03*
X146050Y227584D03*
X158750Y227584D03*
X146050Y166116D03*
X158750Y166116D03*
X171450Y227584D03*
X171450Y166116D03*
D15*
X292100Y107950D03*
X361950Y120650D03*
X622300Y120650D03*
X685800Y120650D03*
X825500Y641350D03*
X717550Y577850D03*
X247650Y565150D03*
X44450Y685800D03*
X774700Y520700D03*
X831850Y520700D03*
X508000Y558800D03*
X908050Y241300D03*
X158750Y266700D03*
X95250Y146050D03*
X831850Y139700D03*
X273050Y190500D03*
X717550Y546100D03*
X609600Y196850D03*
X285750Y203200D03*
X755650Y723900D03*
X247650Y723900D03*
X508000Y723900D03*
X19050Y698500D03*
X920750Y444500D03*
X844550Y444500D03*
X952500Y228600D03*
X82550Y184150D03*
X895350Y457200D03*
X609600Y457200D03*
X234950Y495300D03*
X774700Y469900D03*
X838200Y508000D03*
X774700Y508000D03*
X76200Y476250D03*
X196850Y520700D03*
X76200Y425450D03*
X342900Y400050D03*
X774700Y495300D03*
X857250Y495300D03*
X76200Y488950D03*
X196850Y533400D03*
X63500Y438150D03*
X342900Y444500D03*
X844550Y558800D03*
X984250Y641350D03*
X946150Y641350D03*
X920750Y641350D03*
X895350Y641350D03*
X736600Y641350D03*
X704850Y641350D03*
X673100Y641350D03*
X647700Y641350D03*
X482600Y641350D03*
X450850Y641350D03*
X419100Y641350D03*
X393700Y641350D03*
X285750Y177800D03*
X609600Y171450D03*
X82550Y209550D03*
X527050Y184150D03*
X298450Y139700D03*
X622300Y133350D03*
X95250Y196850D03*
X508000Y146050D03*
X615950Y361950D03*
X800100Y69850D03*
X800100Y139700D03*
X774700Y69850D03*
X774700Y139700D03*
X749300Y69850D03*
X749300Y139700D03*
X723900Y69850D03*
X723900Y139700D03*
X628650Y69850D03*
X584200Y69850D03*
X476250Y69850D03*
X476250Y139700D03*
X450850Y69850D03*
X450850Y139700D03*
X425450Y69850D03*
X425450Y139700D03*
X393700Y69850D03*
X400050Y139700D03*
X304800Y69850D03*
X266700Y69850D03*
X692150Y234950D03*
X711200Y215900D03*
X361950Y241300D03*
X101600Y501650D03*
X196850Y558800D03*
X228600Y641350D03*
X196850Y641350D03*
X165100Y641350D03*
X139700Y641350D03*
X387350Y222250D03*
X88900Y546100D03*
X76200Y552450D03*
X63500Y552450D03*
X44450Y552450D03*
X260350Y546100D03*
X311150Y577850D03*
X342900Y577850D03*
X374650Y577850D03*
X628650Y558800D03*
X596900Y577850D03*
X571500Y577850D03*
X533400Y577850D03*
X857250Y558800D03*
X869950Y558800D03*
X882650Y558800D03*
X609600Y323850D03*
X488950Y323850D03*
X419100Y323850D03*
X565150Y323850D03*
X584200Y444500D03*
X501650Y457200D03*
X450850Y463550D03*
M02*
