G04 EAGLE Gerber RS-274X export*
G75*
%MOMM*%
%FSLAX34Y34*%
%LPD*%
%INSolderpaste Bottom*%
%IPPOS*%
%AMOC8*
5,1,8,0,0,1.08239X$1,22.5*%
G01*
%ADD10R,0.660400X2.032000*%
%ADD11R,1.815300X1.164600*%


D10*
X920750Y159766D03*
X920750Y221234D03*
X908050Y159766D03*
X895350Y159766D03*
X908050Y221234D03*
X895350Y221234D03*
X882650Y159766D03*
X882650Y221234D03*
X869950Y159766D03*
X869950Y221234D03*
X857250Y159766D03*
X844550Y159766D03*
X857250Y221234D03*
X844550Y221234D03*
X831850Y159766D03*
X831850Y221234D03*
D11*
X876300Y594846D03*
X876300Y624354D03*
X844550Y594846D03*
X844550Y624354D03*
X812800Y594846D03*
X812800Y624354D03*
X781050Y594846D03*
X781050Y624354D03*
X628650Y594846D03*
X628650Y624354D03*
X596900Y594846D03*
X596900Y624354D03*
X565150Y594846D03*
X565150Y624354D03*
X533400Y594846D03*
X533400Y624354D03*
X374650Y594846D03*
X374650Y624354D03*
X342900Y594846D03*
X342900Y624354D03*
X311150Y594846D03*
X311150Y624354D03*
X279400Y594846D03*
X279400Y624354D03*
D10*
X984250Y661416D03*
X984250Y722884D03*
X971550Y661416D03*
X958850Y661416D03*
X971550Y722884D03*
X958850Y722884D03*
X946150Y661416D03*
X946150Y722884D03*
X933450Y661416D03*
X933450Y722884D03*
X920750Y661416D03*
X908050Y661416D03*
X920750Y722884D03*
X908050Y722884D03*
X895350Y661416D03*
X895350Y722884D03*
X863600Y661416D03*
X863600Y722884D03*
X850900Y661416D03*
X838200Y661416D03*
X850900Y722884D03*
X838200Y722884D03*
X825500Y661416D03*
X825500Y722884D03*
X812800Y661416D03*
X812800Y722884D03*
X800100Y661416D03*
X787400Y661416D03*
X800100Y722884D03*
X787400Y722884D03*
X774700Y661416D03*
X774700Y722884D03*
X736600Y661416D03*
X736600Y722884D03*
X723900Y661416D03*
X711200Y661416D03*
X723900Y722884D03*
X711200Y722884D03*
X698500Y661416D03*
X698500Y722884D03*
X685800Y661416D03*
X685800Y722884D03*
X673100Y661416D03*
X660400Y661416D03*
X673100Y722884D03*
X660400Y722884D03*
X647700Y661416D03*
X647700Y722884D03*
X615950Y661416D03*
X615950Y722884D03*
X603250Y661416D03*
X590550Y661416D03*
X603250Y722884D03*
X590550Y722884D03*
X577850Y661416D03*
X577850Y722884D03*
X565150Y661416D03*
X565150Y722884D03*
X552450Y661416D03*
X539750Y661416D03*
X552450Y722884D03*
X539750Y722884D03*
X527050Y661416D03*
X527050Y722884D03*
X482600Y661416D03*
X482600Y722884D03*
X469900Y661416D03*
X457200Y661416D03*
X469900Y722884D03*
X457200Y722884D03*
X444500Y661416D03*
X444500Y722884D03*
X431800Y661416D03*
X431800Y722884D03*
X419100Y661416D03*
X406400Y661416D03*
X419100Y722884D03*
X406400Y722884D03*
X393700Y661416D03*
X393700Y722884D03*
X361950Y661416D03*
X361950Y722884D03*
X349250Y661416D03*
X336550Y661416D03*
X349250Y722884D03*
X336550Y722884D03*
X323850Y661416D03*
X323850Y722884D03*
X311150Y661416D03*
X311150Y722884D03*
X298450Y661416D03*
X285750Y661416D03*
X298450Y722884D03*
X285750Y722884D03*
X273050Y661416D03*
X273050Y722884D03*
X228600Y661416D03*
X228600Y722884D03*
X215900Y661416D03*
X203200Y661416D03*
X215900Y722884D03*
X203200Y722884D03*
X190500Y661416D03*
X190500Y722884D03*
X177800Y661416D03*
X177800Y722884D03*
X165100Y661416D03*
X152400Y661416D03*
X165100Y722884D03*
X152400Y722884D03*
X139700Y661416D03*
X139700Y722884D03*
X107950Y661416D03*
X107950Y722884D03*
X95250Y661416D03*
X82550Y661416D03*
X95250Y722884D03*
X82550Y722884D03*
X69850Y661416D03*
X69850Y722884D03*
X57150Y661416D03*
X57150Y722884D03*
X44450Y661416D03*
X31750Y661416D03*
X44450Y722884D03*
X31750Y722884D03*
X19050Y661416D03*
X19050Y722884D03*
D11*
X120650Y594846D03*
X120650Y624354D03*
X88900Y594846D03*
X88900Y624354D03*
X57150Y594846D03*
X57150Y624354D03*
X25400Y594846D03*
X25400Y624354D03*
D10*
X82550Y227584D03*
X82550Y166116D03*
X95250Y227584D03*
X107950Y227584D03*
X95250Y166116D03*
X107950Y166116D03*
X120650Y227584D03*
X120650Y166116D03*
X133350Y227584D03*
X133350Y166116D03*
X146050Y227584D03*
X158750Y227584D03*
X146050Y166116D03*
X158750Y166116D03*
X171450Y227584D03*
X171450Y166116D03*
M02*
