M48
;GenerationSoftware,Autodesk,EAGLE,9.6.2*%
;CreationDate,2024-07-10T19:19:48Z*%
FMAT,2
ICI,OFF
METRIC,TZ,000.000
T4C0.350
T3C1.000
T2C1.200
T1C3.000
%
G90
M71
T1
X49784Y76962
X3810Y17145
X97155Y53340
X97790Y20320
T2
X10160Y4445
X7620Y4445
X5080Y4445
X12700Y4445
X7112Y76200
X4572Y76200
X2032Y76200
X9652Y76200
X19050Y76200
X16510Y76200
X13970Y76200
X21590Y76200
X52705Y4445
X5080Y33020
X5080Y35560
X5080Y27940
X97790Y76200
X90170Y76200
X92710Y76200
X95250Y76200
X85725Y76200
X78105Y76200
X80645Y76200
X83185Y76200
X73660Y76200
X66040Y76200
X68580Y76200
X71120Y76200
X25400Y4445
X22860Y4445
X20320Y4445
X27940Y4445
X43815Y4445
X41275Y4445
X38735Y4445
X46355Y4445
X57785Y4445
X55245Y4445
X5080Y30480
X60325Y4445
X76200Y4445
X73660Y4445
X71120Y4445
X78740Y4445
X91440Y4445
X88900Y4445
X86360Y4445
X93980Y4445
X95250Y33020
X95250Y30480
X95250Y27940
X95250Y35560
X31115Y76200
X28575Y76200
X26035Y76200
X33655Y76200
X43180Y76200
X40640Y76200
X38100Y76200
X45720Y76200
X59055Y76200
X56515Y76200
X53975Y76200
X61595Y76200
T3
X56515Y27305
X53975Y27305
X51435Y27305
X48895Y27305
X46355Y27305
X43815Y27305
X41275Y27305
X56515Y50165
X53975Y50165
X51435Y50165
X48895Y50165
X46355Y50165
X43815Y50165
X41275Y50165
X59055Y27305
X59055Y50165
T4
X26670Y6985
X69215Y23495
X71120Y21590
X36195Y24130
X10160Y50165
X19685Y55880
X22860Y64135
X19685Y64135
X16510Y64135
X13970Y64135
X38735Y22225
X8890Y54610
X7620Y55245
X6350Y55245
X4445Y55245
X26035Y54610
X29210Y10795
X34290Y57785
X37465Y57785
X62865Y55880
X59690Y57785
X57150Y57785
X53340Y57785
X85725Y55880
X86995Y55880
X88265Y55880
X60960Y32385
X48895Y32385
X41910Y32385
X56515Y32385
X58420Y44450
X50165Y45720
X45085Y46355
X30480Y6985
X40005Y13970
X39370Y6985
X42545Y13970
X42545Y6985
X45085Y13970
X45085Y6985
X47625Y13970
X47625Y6985
X58420Y6985
X62865Y6985
X72390Y13970
X72390Y6985
X74930Y13970
X74930Y6985
X77470Y13970
X77470Y6985
X80010Y13970
X80010Y6985
X61595Y36195
X50800Y14605
X9525Y19685
X62230Y13335
X29845Y13970
X52705Y18415
X8255Y20955
X60960Y17145
X28575Y17780
X39370Y64135
X41910Y64135
X45085Y64135
X48260Y64135
X64770Y64135
X67310Y64135
X70485Y64135
X73660Y64135
X89535Y64135
X92075Y64135
X94615Y64135
X98425Y64135
X84455Y55880
X34290Y44450
X6350Y43815
X19685Y53340
X7620Y48895
X85725Y49530
X77470Y49530
X34290Y40005
X7620Y42545
X19685Y52070
X7620Y47625
X77470Y50800
X83820Y50800
X77470Y46990
X23495Y49530
X60960Y45720
X89535Y45720
X8255Y18415
X95250Y22860
X84455Y44450
X92075Y44450
X1905Y69850
X50800Y72390
X24765Y72390
X75565Y72390
X28575Y20320
X60960Y19685
X71755Y54610
X27305Y19050
X83185Y13970
X9525Y14605
X15875Y26670
X90805Y24130
X50800Y55880
X83185Y52070
X77470Y52070
X4445Y68580
X24765Y56515
X71755Y57785
X82550Y64135
X68580Y12065
X62230Y12065
X36195Y12065
X31115Y57785
M30